<?xml version="1.0" encoding="UTF-8"?>
<!-- Generator: visioncortex VTracer 0.6.3 -->
<svg version="1.1" xmlns="http://www.w3.org/2000/svg" width="1280" height="393">
<path d="M0 0 C0.78 0.02 1.57 0.04 2.38 0.06 C4.03 0.11 5.68 0.16 7.34 0.21 C9.87 0.29 12.4 0.36 14.93 0.42 C16.53 0.47 18.14 0.51 19.75 0.56 C20.88 0.59 20.88 0.59 22.04 0.62 C25.18 0.73 27.75 0.92 30.74 1.91 C33.13 7.78 33.21 14.78 33.68 21.04 C33.84 23.08 34.01 25.11 34.18 27.15 C34.27 28.24 34.36 29.33 34.45 30.45 C35.86 47.19 37.57 63.92 39.54 80.61 C41.17 94.42 42.63 108.25 44.11 122.07 C44.77 128.16 45.44 134.24 46.13 140.32 C46.61 144.54 47.08 148.76 47.55 152.98 C47.64 153.74 47.73 154.51 47.82 155.3 C48.89 164.87 49.91 174.45 50.86 184.04 C50.99 185.4 50.99 185.4 51.13 186.8 C51.57 191.25 52.01 195.71 52.43 200.16 C52.59 201.79 52.75 203.41 52.91 205.04 C52.98 205.78 53.05 206.52 53.12 207.28 C53.44 210.57 53.8 213.74 54.74 216.91 C54.79 216.27 54.84 215.62 54.89 214.95 C55.11 212.07 55.33 209.19 55.56 206.3 C55.69 204.57 55.82 202.84 55.95 201.1 C56.19 197.94 56.44 194.77 56.68 191.6 C56.75 190.6 56.83 189.59 56.91 188.55 C57.34 182.92 57.93 177.32 58.66 171.71 C60.14 160.31 61.12 148.86 62.18 137.41 C62.4 135.02 62.63 132.62 62.85 130.23 C63.48 123.46 64.11 116.69 64.74 109.91 C65.24 104.54 65.74 99.16 66.24 93.79 C66.35 92.61 66.46 91.43 66.58 90.21 C67.98 75.22 69.47 60.24 70.94 45.26 C71.04 44.22 71.15 43.18 71.25 42.11 C71.46 40.05 71.66 37.99 71.86 35.93 C72.36 30.91 72.84 25.89 73.3 20.87 C73.39 19.91 73.48 18.95 73.57 17.96 C73.74 16.16 73.91 14.36 74.07 12.56 C74.43 8.62 74.85 4.78 75.74 0.91 C81.67 0.86 87.6 0.83 93.52 0.8 C95.54 0.79 97.55 0.78 99.57 0.76 C102.47 0.74 105.36 0.73 108.26 0.72 C109.16 0.71 110.07 0.7 111 0.69 C111.84 0.69 112.68 0.69 113.55 0.69 C114.29 0.68 115.03 0.68 115.79 0.67 C117.74 0.91 117.74 0.91 120.74 2.91 C121.32 5.23 121.32 5.23 121.6 8.16 C121.77 9.81 121.77 9.81 121.95 11.49 C122.06 12.7 122.16 13.9 122.28 15.14 C122.4 16.38 122.53 17.63 122.65 18.92 C122.98 22.26 123.3 25.6 123.61 28.94 C123.92 32.24 124.25 35.54 124.58 38.84 C125.87 52.02 127.02 65.2 128.04 78.41 C128.54 84.73 129.17 91.03 129.95 97.32 C130.74 103.7 131.38 110.09 132 116.48 C132.16 118.14 132.16 118.14 132.32 119.82 C132.65 123.23 132.98 126.63 133.3 130.04 C133.74 134.58 134.18 139.13 134.62 143.67 C134.77 145.21 134.77 145.21 134.92 146.78 C135.29 150.65 135.68 154.49 136.24 158.34 C136.99 163.67 137.42 169.02 137.9 174.38 C138.12 176.81 138.34 179.24 138.56 181.68 C138.9 185.5 139.25 189.33 139.59 193.15 C139.91 196.85 140.25 200.55 140.59 204.25 C140.74 205.98 140.74 205.98 140.89 207.75 C141.04 209.33 141.04 209.33 141.19 210.95 C141.31 212.36 141.31 212.36 141.44 213.79 C141.52 215.89 141.52 215.89 142.74 216.91 C143.37 210.71 143.99 204.5 144.62 198.29 C144.71 197.37 144.8 196.46 144.9 195.51 C146.57 178.82 146.57 178.82 148.06 162.11 C148.47 157.35 149.03 152.63 149.64 147.89 C150.96 137.69 151.89 127.44 152.86 117.2 C153.41 111.39 153.96 105.58 154.52 99.77 C154.62 98.63 154.73 97.5 154.84 96.33 C155.97 84.5 157.15 72.67 158.35 60.84 C158.73 57.05 159.1 53.25 159.48 49.45 C159.83 45.86 160.19 42.28 160.54 38.69 C160.71 36.96 160.88 35.23 161.05 33.49 C162.12 22.61 163.33 11.76 164.74 0.91 C170.1 0.86 175.46 0.83 180.81 0.8 C182.64 0.79 184.46 0.78 186.28 0.76 C188.9 0.74 191.52 0.73 194.14 0.72 C194.95 0.71 195.77 0.7 196.61 0.69 C200.51 0.69 202.42 0.7 205.74 2.91 C205.45 6.23 205.16 9.54 204.87 12.85 C204.79 13.76 204.71 14.67 204.63 15.6 C204.04 22.18 203.31 28.74 202.53 35.3 C201.93 40.28 201.36 45.26 200.81 50.25 C200.74 50.95 200.66 51.64 200.58 52.35 C200.42 53.78 200.27 55.21 200.11 56.64 C198.7 69.44 197.25 82.24 195.74 95.04 C195.66 95.73 195.58 96.43 195.49 97.14 C194.66 104.26 193.81 111.37 192.94 118.49 C192.5 122.13 192.06 125.77 191.62 129.41 C191.53 130.12 191.45 130.83 191.36 131.57 C190.11 141.99 189.18 152.41 188.46 162.88 C187.66 174.07 185.98 185.09 184.23 196.16 C183.65 200.59 183.25 205.02 182.84 209.47 C181.07 228.78 178.75 248.02 176.32 267.25 C175.93 270.39 175.55 273.52 175.18 276.66 C175.09 277.4 175 278.15 174.91 278.92 C174.67 280.95 174.43 282.97 174.19 285 C173.74 287.91 173.74 287.91 172.74 288.91 C170.95 289.03 169.15 289.08 167.35 289.11 C165.62 289.13 165.62 289.13 163.86 289.16 C158.59 289.2 153.32 289.24 148.05 289.26 C144.57 289.28 141.1 289.33 137.62 289.38 C134.31 289.42 131 289.43 127.69 289.44 C126.44 289.46 125.19 289.48 123.9 289.51 C122.74 289.5 121.58 289.5 120.39 289.5 C119.37 289.51 118.35 289.51 117.3 289.52 C114.74 288.91 114.74 288.91 112.93 286.56 C111.55 283.49 111.16 280.96 110.86 277.61 C110.75 276.39 110.63 275.18 110.51 273.92 C110.4 272.64 110.29 271.36 110.18 270.04 C109.93 267.4 109.68 264.77 109.43 262.14 C109.26 260.25 109.26 260.25 109.08 258.33 C108.69 254.36 108.18 250.43 107.62 246.48 C106.82 240.82 106.38 235.2 106.02 229.5 C105.57 223.63 104.78 217.8 104.01 211.97 C103.56 208.51 103.12 205.06 102.68 201.6 C102.52 200.39 102.37 199.18 102.21 197.93 C101.38 191.07 100.84 184.18 100.28 177.3 C99.41 166.78 98.44 156.34 96.74 145.91 C95.46 148.49 95.45 150.6 95.24 153.47 C95.16 154.58 95.08 155.69 94.99 156.83 C94.91 157.99 94.83 159.15 94.74 160.35 C94.58 162.64 94.41 164.93 94.24 167.22 C94.17 168.24 94.1 169.26 94.02 170.31 C93.74 172.91 93.74 172.91 92.74 175.91 C92.76 177.17 92.78 178.43 92.8 179.73 C92.85 183.74 92.43 187.51 91.82 191.47 C90.85 198.03 90.09 204.57 89.43 211.16 C89.31 212.34 89.19 213.52 89.07 214.73 C88.71 218.26 88.35 221.8 88 225.33 C87.71 228.21 87.42 231.09 87.13 233.97 C85.84 246.86 84.55 259.76 83.27 272.65 C83.14 273.95 83.14 273.95 83 275.28 C82.82 277.11 82.65 278.95 82.49 280.78 C82.36 282.14 82.36 282.14 82.24 283.53 C82.17 284.35 82.09 285.17 82.02 286.01 C81.74 287.91 81.74 287.91 80.74 288.91 C78.86 289.03 76.97 289.08 75.08 289.11 C73.26 289.13 73.26 289.13 71.41 289.16 C65.86 289.2 60.31 289.24 54.77 289.26 C51.11 289.28 47.45 289.33 43.8 289.38 C40.99 289.41 38.18 289.42 35.37 289.43 C33.37 289.44 31.36 289.47 29.36 289.51 C27.53 289.5 27.53 289.5 25.67 289.5 C24.59 289.51 23.52 289.51 22.41 289.52 C19.74 288.91 19.74 288.91 17.91 286.58 C16.5 283.37 16.15 280.66 15.86 277.17 C15.81 276.53 15.75 275.88 15.69 275.22 C15.51 273.16 15.34 271.1 15.18 269.04 C14.95 266.35 14.72 263.67 14.49 260.98 C14.43 260.31 14.37 259.64 14.31 258.94 C13.81 253.24 13.05 247.58 12.27 241.91 C11.22 234.12 10.48 226.29 9.68 218.48 C9.42 215.95 9.16 213.42 8.89 210.89 C8.73 209.34 8.57 207.78 8.41 206.23 C8.05 202.75 7.67 199.28 7.23 195.82 C6.78 192.19 6.38 188.57 6.02 184.93 C5.9 183.67 5.77 182.4 5.64 181.1 C5.37 178.46 5.11 175.82 4.85 173.18 C4.72 171.92 4.59 170.66 4.46 169.37 C4.35 168.22 4.23 167.08 4.12 165.9 C3.81 163.47 3.36 161.27 2.74 158.91 C2.42 156.06 2.13 153.21 1.87 150.35 C1.05 141.8 0.14 133.26 -0.82 124.73 C-1.01 123.03 -1.01 123.03 -1.2 121.29 C-1.86 115.46 -1.86 115.46 -2.52 109.63 C-3.03 105.05 -3.51 100.46 -3.98 95.87 C-4.1 94.61 -4.23 93.35 -4.36 92.06 C-4.63 89.45 -4.89 86.83 -5.15 84.22 C-5.28 82.97 -5.41 81.72 -5.54 80.43 C-5.65 79.3 -5.77 78.17 -5.88 77 C-6.22 74.26 -6.7 71.62 -7.26 68.91 C-7.43 67.48 -7.59 66.05 -7.72 64.61 C-7.8 63.81 -7.88 63.01 -7.95 62.18 C-8.03 61.33 -8.11 60.48 -8.2 59.6 C-8.78 53.51 -9.41 47.43 -10.2 41.35 C-11.15 33.81 -12.07 26.27 -12.95 18.73 C-13.09 17.54 -13.23 16.36 -13.38 15.14 C-13.51 14.02 -13.64 12.9 -13.77 11.75 C-13.89 10.74 -14.01 9.74 -14.13 8.71 C-14.26 5.91 -13.93 3.62 -13.26 0.91 C-8.82 -0.22 -4.54 -0.14 0 0 Z M176.74 243.91 C177.74 246.91 177.74 246.91 177.74 246.91 Z M24.74 286.91 C24.74 287.24 24.74 287.57 24.74 287.91 C31.01 287.91 37.28 287.91 43.74 287.91 C43.74 287.58 43.74 287.25 43.74 286.91 C37.47 286.91 31.2 286.91 24.74 286.91 Z M55.74 286.91 C59.74 287.91 59.74 287.91 59.74 287.91 Z M63.74 286.91 C63.74 287.24 63.74 287.57 63.74 287.91 C66.05 287.91 68.36 287.91 70.74 287.91 C70.74 287.58 70.74 287.25 70.74 286.91 C68.43 286.91 66.12 286.91 63.74 286.91 Z M114.74 286.91 C114.74 287.24 114.74 287.57 114.74 287.91 C117.38 287.91 120.02 287.91 122.74 287.91 C122.74 287.58 122.74 287.25 122.74 286.91 C120.1 286.91 117.46 286.91 114.74 286.91 Z M124.74 286.91 C124.74 287.24 124.74 287.57 124.74 287.91 C130.68 287.91 136.62 287.91 142.74 287.91 C142.74 287.58 142.74 287.25 142.74 286.91 C136.8 286.91 130.86 286.91 124.74 286.91 Z M155.74 286.91 C155.74 287.24 155.74 287.57 155.74 287.91 C158.71 287.91 161.68 287.91 164.74 287.91 C164.74 287.58 164.74 287.25 164.74 286.91 C161.77 286.91 158.8 286.91 155.74 286.91 Z M165.74 286.91 C165.74 287.24 165.74 287.57 165.74 287.91 C167.72 287.91 169.7 287.91 171.74 287.91 C171.74 287.58 171.74 287.25 171.74 286.91 C169.76 286.91 167.78 286.91 165.74 286.91 Z " fill="#F95857" transform="translate(111.2578125,50.0859375)"/>
<path d="M0 0 C1.48 -0 2.97 -0 4.45 -0 C8.3 -0.01 12.14 -0 15.98 0 C18.37 0.01 20.76 0.01 23.15 0.01 C49.83 0.03 76.48 0.35 103.14 1.13 C104.81 4.46 104.26 8.2 104.24 11.86 C104.24 13.15 104.24 13.15 104.24 14.47 C104.23 17.24 104.22 20 104.21 22.76 C104.2 24.63 104.2 26.5 104.19 28.37 C104.18 32.96 104.17 37.54 104.14 42.13 C101.2 43.6 98.7 43.12 95.42 42.98 C94.76 42.95 94.1 42.92 93.42 42.9 C91.31 42.81 89.19 42.72 87.08 42.63 C84.3 42.51 81.52 42.4 78.73 42.29 C77.5 42.24 76.26 42.18 74.98 42.13 C72.24 41.8 72.24 41.8 71.14 43.13 C69.76 43.25 68.38 43.31 66.99 43.34 C66.1 43.36 65.21 43.38 64.29 43.4 C63.34 43.42 62.4 43.43 61.42 43.45 C60.56 43.47 59.69 43.49 58.8 43.51 C55.56 43.57 52.32 43.63 49.08 43.7 C41.84 43.84 34.6 43.98 27.14 44.13 C27.14 69.21 27.14 94.29 27.14 120.13 C46.14 120.75 46.14 120.75 65.14 121.36 C67.51 121.44 69.89 121.52 72.26 121.6 C73.5 121.64 74.75 121.67 76.03 121.71 C77.2 121.75 78.38 121.79 79.59 121.84 C81.13 121.89 81.13 121.89 82.7 121.94 C85.14 122.13 85.14 122.13 87.14 123.13 C87.14 136.66 87.14 150.19 87.14 164.13 C67.01 164.13 46.88 164.13 26.14 164.13 C26.14 191.19 26.14 218.25 26.14 246.13 C36.32 246.1 36.32 246.1 46.71 246.07 C60.25 246.06 73.8 246.06 87.34 246.45 C89.3 246.51 91.27 246.55 93.23 246.6 C94.39 246.64 95.55 246.68 96.75 246.72 C97.75 246.75 98.75 246.78 99.79 246.81 C102.14 247.13 102.14 247.13 104.14 249.13 C104.33 252.06 104.4 254.9 104.38 257.82 C104.37 258.68 104.37 259.55 104.37 260.43 C104.37 262.25 104.36 264.07 104.35 265.89 C104.33 268.69 104.33 271.48 104.33 274.28 C104.33 276.04 104.32 277.81 104.31 279.57 C104.31 280.42 104.31 281.26 104.31 282.12 C104.26 288.02 104.26 288.02 103.14 289.13 C101.17 289.24 99.2 289.27 97.23 289.27 C95.3 289.28 95.3 289.28 93.33 289.29 C91.89 289.29 90.46 289.29 89.02 289.29 C87.51 289.3 86.01 289.3 84.51 289.31 C80.41 289.32 76.31 289.33 72.21 289.33 C69.66 289.34 67.1 289.34 64.54 289.34 C56.55 289.36 48.56 289.37 40.57 289.37 C31.33 289.38 22.09 289.39 12.85 289.42 C5.72 289.44 -1.41 289.45 -8.55 289.46 C-12.81 289.46 -17.08 289.46 -21.34 289.48 C-25.35 289.5 -29.36 289.5 -33.37 289.49 C-34.84 289.49 -36.32 289.49 -37.79 289.5 C-39.8 289.52 -41.81 289.51 -43.81 289.5 C-44.94 289.5 -46.06 289.5 -47.22 289.5 C-48.09 289.38 -48.96 289.26 -49.86 289.13 C-52.01 285.9 -52.1 285.04 -52.1 281.31 C-52.11 280.31 -52.11 279.32 -52.11 278.29 C-52.1 276.64 -52.1 276.64 -52.1 274.95 C-52.1 273.79 -52.1 272.62 -52.1 271.42 C-52.1 268.18 -52.1 264.93 -52.09 261.69 C-52.08 258.19 -52.08 254.7 -52.08 251.21 C-52.08 245.15 -52.08 239.09 -52.07 233.03 C-52.05 224.28 -52.05 215.52 -52.04 206.76 C-52.04 192.56 -52.03 178.35 -52.01 164.14 C-51.99 150.34 -51.97 136.54 -51.97 122.73 C-51.96 121.88 -51.96 121.03 -51.96 120.16 C-51.96 115.89 -51.96 111.62 -51.96 107.36 C-51.94 71.95 -51.9 36.54 -51.86 1.13 C-15.27 -0.02 -15.27 -0.02 0 0 Z M102.14 275.13 C102.14 276.78 102.14 278.43 102.14 280.13 C102.47 280.13 102.8 280.13 103.14 280.13 C103.14 278.48 103.14 276.83 103.14 275.13 C102.81 275.13 102.48 275.13 102.14 275.13 Z M-48.86 287.13 C-48.86 287.46 -48.86 287.79 -48.86 288.13 C-47.21 288.13 -45.56 288.13 -43.86 288.13 C-43.86 287.8 -43.86 287.47 -43.86 287.13 C-45.51 287.13 -47.16 287.13 -48.86 287.13 Z M-37.86 287.13 C-37.86 287.46 -37.86 287.79 -37.86 288.13 C-32.25 288.13 -26.64 288.13 -20.86 288.13 C-20.86 287.8 -20.86 287.47 -20.86 287.13 C-26.47 287.13 -32.08 287.13 -37.86 287.13 Z " fill="#FA5857" transform="translate(632.85546875,49.8671875)"/>
<path d="M0 0 C93.19 0 93.19 0 108 8 C109.66 8.69 111.32 9.36 113 10 C113 10.66 113 11.32 113 12 C113.6 12.11 114.2 12.21 114.82 12.32 C121.79 14.5 126.63 25.07 130 31 C135.89 43.42 136.64 57.45 137 71 C137.02 71.73 137.04 72.46 137.07 73.21 C137.66 95.87 136.35 119.8 120.75 137.56 C119 139 119 139 117 139 C116.79 139.58 116.59 140.16 116.38 140.75 C114.5 143.81 112.03 145.16 109 147 C109.99 147.33 110.98 147.66 112 148 C112 148.66 112 149.32 112 150 C112.59 150.09 113.18 150.18 113.79 150.27 C116.56 151.18 117.53 152.38 119.38 154.62 C121.94 157.74 121.94 157.74 124.64 160.73 C141.26 178.4 137.57 210.65 137.56 233.06 C137.56 239.69 137.58 246.33 137.62 252.96 C137.63 255.24 137.62 257.53 137.61 259.81 C137.62 267.63 138.31 274.84 140.36 282.45 C141 285 141 285 141 288 C134.65 288.13 128.29 288.21 121.94 288.27 C119.78 288.3 117.61 288.33 115.45 288.38 C112.35 288.44 109.24 288.47 106.14 288.49 C105.17 288.51 104.2 288.54 103.2 288.57 C100.7 288.57 98.44 288.53 96 288 C87.61 278.61 89.88 260.4 89.98 248.65 C90.08 235.96 90.04 223.26 89.74 210.58 C89.7 209.13 89.68 207.68 89.65 206.23 C89.48 195.64 89.26 185.43 81.61 177.4 C74.7 171.37 66.25 171.86 57.62 171.94 C56.23 171.94 56.23 171.94 54.82 171.95 C52.54 171.96 50.27 171.98 48 172 C46.8 174.39 46.86 175.9 46.84 178.57 C46.83 180.01 46.83 180.01 46.81 181.48 C46.81 182.54 46.8 183.6 46.79 184.69 C46.78 185.8 46.77 186.92 46.76 188.06 C46.73 191.75 46.71 195.44 46.68 199.13 C46.66 201.69 46.64 204.24 46.62 206.79 C46.57 212.83 46.53 218.88 46.48 224.92 C46.43 231.8 46.38 238.67 46.32 245.55 C46.21 259.7 46.1 273.85 46 288 C39.77 288.03 33.54 288.04 27.31 288.05 C25.19 288.06 23.07 288.07 20.95 288.08 C17.91 288.09 14.86 288.09 11.82 288.1 C10.87 288.1 9.92 288.11 8.94 288.11 C8.05 288.11 7.17 288.11 6.27 288.11 C5.49 288.12 4.71 288.12 3.91 288.12 C2 288 2 288 0 287 C0 192.29 0 97.58 0 0 Z M46 42 C46 70.38 46 98.76 46 128 C49.9 129.95 54.71 129.27 59 129.31 C60 129.34 61.01 129.37 62.04 129.4 C69.4 129.46 76.8 128.58 82.62 123.62 C90.1 115.14 90.15 105.63 90.2 94.95 C90.21 93.53 90.21 93.53 90.22 92.09 C90.23 90.11 90.24 88.13 90.24 86.15 C90.25 83.14 90.28 80.14 90.31 77.13 C90.32 75.19 90.32 73.26 90.33 71.32 C90.34 70.43 90.35 69.55 90.37 68.64 C90.34 60.92 89.3 52.96 84 47 C83.34 47 82.68 47 82 47 C82 46.34 82 45.68 82 45 C68.71 39.61 66.61 42 46 42 Z M45 171 C46 173 46 173 46 173 Z M3 286 C3 286.33 3 286.66 3 287 C5.97 287 8.94 287 12 287 C12 286.67 12 286.34 12 286 C9.03 286 6.06 286 3 286 Z M14 286 C18 287 18 287 18 287 Z M20 286 C20 286.33 20 286.66 20 287 C28.25 287 36.5 287 45 287 C45 286.67 45 286.34 45 286 C36.75 286 28.5 286 20 286 Z M108 286 C108 286.33 108 286.66 108 287 C112.29 287 116.58 287 121 287 C121 286.67 121 286.34 121 286 C116.71 286 112.42 286 108 286 Z M122 286 C122 286.33 122 286.66 122 287 C123.65 287 125.3 287 127 287 C127 286.67 127 286.34 127 286 C125.35 286 123.7 286 122 286 Z M128 286 C128 286.33 128 286.66 128 287 C131.96 287 135.92 287 140 287 C140 286.67 140 286.34 140 286 C136.04 286 132.08 286 128 286 Z " fill="#F85858" transform="translate(416,51)"/>
<path d="M0 0 C1.93 0.02 1.93 0.02 3.9 0.04 C4.62 0.04 5.33 0.05 6.06 0.05 C8.42 0.07 10.79 0.11 13.15 0.14 C14.81 0.16 16.47 0.18 18.12 0.19 C21.61 0.23 25.09 0.28 28.58 0.33 C32.99 0.4 37.4 0.44 41.82 0.48 C45.25 0.51 48.68 0.56 52.11 0.61 C53.73 0.63 55.36 0.65 56.98 0.66 C65.82 0.73 74.43 1.24 83.17 2.59 C83.94 2.71 84.71 2.83 85.51 2.95 C92.4 4.11 98.63 6.33 105 9.22 C105 9.88 105 10.54 105 11.22 C105.59 11.34 106.19 11.45 106.8 11.57 C115.23 14.08 121.41 24.35 125.69 31.47 C128.68 37.07 130.34 43.12 132 49.22 C132.26 50.12 132.26 50.12 132.52 51.05 C134.76 61.1 134.15 71.88 134.15 82.13 C134.15 83.68 134.15 85.24 134.16 86.79 C134.17 90.97 134.17 95.14 134.17 99.32 C134.17 101.94 134.17 104.56 134.17 107.18 C134.18 116.35 134.19 125.52 134.19 134.68 C134.19 143.19 134.2 151.69 134.21 160.19 C134.23 167.53 134.23 174.86 134.23 182.2 C134.23 186.57 134.23 190.93 134.24 195.3 C134.25 199.41 134.25 203.52 134.25 207.63 C134.25 209.12 134.25 210.62 134.25 212.11 C134.32 229.25 134.29 252.74 121.42 265.84 C120.95 266.29 120.48 266.75 120 267.22 C119.32 268.55 118.65 269.88 118 271.22 C117.34 271.88 116.68 272.54 116 273.22 C115.01 273.22 114.02 273.22 113 273.22 C112.67 274.21 112.34 275.2 112 276.22 C97.05 290.27 71.14 289.54 51.8 289.59 C50.21 289.6 48.63 289.61 47.04 289.62 C43.76 289.64 40.48 289.65 37.2 289.65 C32.99 289.65 28.79 289.69 24.58 289.74 C21.33 289.77 18.07 289.77 14.82 289.77 C13.27 289.78 11.72 289.79 10.16 289.81 C8.01 289.84 5.85 289.83 3.7 289.82 C2.47 289.83 1.25 289.83 -0.01 289.84 C-3 289.22 -3 289.22 -4.9 286.82 C-6 284.22 -6.35 282.59 -6.29 279.8 C-6.28 278.6 -6.28 278.6 -6.26 277.38 C-6.24 276.57 -6.21 275.75 -6.19 274.91 C-6.17 274.07 -6.16 273.24 -6.14 272.38 C-6.11 270.33 -6.06 268.27 -6 266.22 C-6.33 266.22 -6.66 266.22 -7 266.22 C-7 257.97 -7 249.72 -7 241.22 C-6.34 241.22 -5.68 241.22 -5 241.22 C-5.03 239.94 -5.06 238.65 -5.09 237.33 C-5.92 200.4 -6.16 163.48 -6.13 126.54 C-6.12 121.48 -6.12 116.42 -6.13 111.35 C-6.15 83.25 -6.14 55.15 -5.67 27.06 C-5.63 24.82 -5.6 22.58 -5.57 20.34 C-5.53 17.3 -5.47 14.26 -5.41 11.23 C-5.4 10.33 -5.39 9.44 -5.37 8.52 C-5.18 0.38 -5.18 0.38 0 0 Z M41 43.22 C40.98 69.53 40.96 95.83 40.95 122.13 C40.95 134.34 40.94 146.56 40.93 158.77 C40.92 169.41 40.91 180.05 40.91 190.69 C40.91 196.33 40.9 201.96 40.9 207.6 C40.89 212.9 40.89 218.2 40.89 223.5 C40.89 225.45 40.89 227.4 40.88 229.35 C40.88 232.01 40.88 234.66 40.88 237.31 C40.88 238.09 40.88 238.87 40.87 239.68 C40.81 243.58 40.81 243.58 42 247.22 C46.34 247.28 50.67 247.32 55 247.35 C56.22 247.36 57.44 247.38 58.7 247.4 C67.79 247.45 75.73 247.34 83 241.22 C87.45 235.25 88.12 229.6 88.14 222.34 C88.15 221.66 88.15 220.98 88.15 220.28 C88.16 218.01 88.16 215.74 88.16 213.47 C88.17 211.84 88.17 210.2 88.18 208.57 C88.19 204.15 88.2 199.72 88.2 195.29 C88.21 192.52 88.21 189.75 88.21 186.98 C88.23 178.32 88.24 169.65 88.24 160.98 C88.25 150.98 88.26 140.99 88.29 131 C88.31 123.26 88.32 115.53 88.33 107.79 C88.33 103.18 88.33 98.56 88.35 93.95 C88.37 89.61 88.37 85.26 88.36 80.92 C88.36 79.33 88.36 77.74 88.37 76.15 C88.44 65.46 88.16 55.77 81 47.22 C75.3 42.97 69.85 42.1 62.9 42.09 C61.75 42.09 60.6 42.09 59.42 42.09 C57.63 42.09 57.63 42.09 55.81 42.1 C54.61 42.09 53.41 42.09 52.18 42.09 C50.46 42.09 50.46 42.09 48.71 42.09 C47.66 42.09 46.62 42.09 45.54 42.09 C43.01 42.05 43.01 42.05 41 43.22 Z " fill="#F8DD5C" transform="translate(768.9979095458984,49.77726745605469)"/>
<path d="M0 0 C0.95 0.43 1.9 0.86 2.88 1.31 C17.25 8.36 26.69 21.47 31.92 36.34 C35.42 48.22 35.37 61.09 35.63 73.39 C35.69 75.99 35.76 78.59 35.83 81.19 C35.87 82.84 35.91 84.5 35.95 86.15 C35.98 87.32 35.98 87.32 36.01 88.5 C36.05 90.34 36.03 92.17 36 94 C33.86 96.14 28.98 95.19 26 95.2 C24.65 95.21 24.65 95.21 23.26 95.22 C21.35 95.23 19.43 95.24 17.52 95.24 C14.58 95.25 11.64 95.28 8.7 95.31 C6.84 95.32 4.99 95.32 3.13 95.33 C1.8 95.35 1.8 95.35 0.45 95.37 C-2.03 95.36 -2.03 95.36 -6 95 C-8.46 91.3 -8.31 88.43 -8.34 84.15 C-8.36 83.37 -8.37 82.6 -8.39 81.8 C-8.43 79.33 -8.47 76.85 -8.5 74.38 C-7.96 56.64 -7.96 56.64 -15 41 C-20.03 37.09 -25.68 35.89 -31.94 36.19 C-38.44 37.31 -44.98 38.46 -49.02 44.18 C-53.82 53.07 -53.43 62.77 -53.39 72.58 C-53.39 74.24 -53.4 75.9 -53.4 77.56 C-53.42 82.05 -53.41 86.53 -53.4 91.01 C-53.4 95.72 -53.4 100.43 -53.41 105.13 C-53.41 113.03 -53.41 120.94 -53.39 128.84 C-53.37 137.95 -53.38 147.07 -53.4 156.19 C-53.41 164.04 -53.41 171.88 -53.4 179.73 C-53.4 184.41 -53.4 189.09 -53.41 193.77 C-53.42 198.16 -53.41 202.56 -53.39 206.96 C-53.39 208.57 -53.39 210.18 -53.4 211.79 C-53.64 226.22 -53.64 226.22 -47.69 238.94 C-42.08 243.24 -37.54 244.56 -30.62 244.5 C-29.87 244.49 -29.12 244.49 -28.34 244.48 C-23.33 244.32 -19.48 243.75 -15.45 240.56 C-10.07 234.77 -8.87 228.63 -8.89 220.92 C-8.89 219.72 -8.89 218.52 -8.89 217.29 C-8.89 216 -8.9 214.71 -8.9 213.39 C-8.9 212.05 -8.91 210.71 -8.91 209.37 C-8.91 205.86 -8.92 202.35 -8.93 198.84 C-8.94 195.26 -8.95 191.67 -8.95 188.08 C-8.96 181.06 -8.98 174.03 -9 167 C-10.81 166.93 -10.81 166.93 -12.65 166.85 C-14.22 166.78 -15.8 166.7 -17.38 166.62 C-18.17 166.59 -18.96 166.56 -19.78 166.53 C-25.77 166.23 -25.77 166.23 -28 164 C-28.18 160.99 -28.23 158.07 -28.2 155.05 C-28.19 154.17 -28.19 153.28 -28.19 152.37 C-28.18 149.54 -28.15 146.71 -28.12 143.88 C-28.11 141.96 -28.11 140.04 -28.1 138.12 C-28.08 133.41 -28.04 128.71 -28 124 C-20.08 123.98 -12.16 123.96 -4.24 123.95 C-0.57 123.94 3.11 123.94 6.79 123.92 C10.33 123.91 13.88 123.91 17.43 123.91 C18.78 123.9 20.14 123.9 21.49 123.89 C23.39 123.89 25.28 123.89 27.17 123.89 C28.25 123.88 29.33 123.88 30.44 123.88 C33 124 33 124 35 125 C35.05 138.48 35.08 151.97 35.1 165.45 C35.11 171.71 35.13 177.97 35.15 184.23 C35.17 190.28 35.18 196.33 35.19 202.38 C35.19 204.68 35.2 206.98 35.21 209.29 C35.32 232.37 33.58 254.13 17 272 C16.34 272 15.68 272 15 272 C14.26 272.75 13.53 273.5 12.77 274.28 C1.55 285.32 -16.45 288.33 -31.56 288.5 C-40.84 288.42 -49.21 286.88 -58 284 C-59.43 283.53 -59.43 283.53 -60.89 283.05 C-75.11 277.86 -86.52 267.13 -93.18 253.6 C-95.5 248.22 -96.74 242.94 -97.61 237.15 C-97.78 235.03 -97.78 235.03 -99 234 C-100.06 227.33 -100.19 220.53 -100.32 213.79 C-100.34 212.79 -100.36 211.79 -100.38 210.76 C-100.45 207.38 -100.51 204 -100.56 200.62 C-100.58 199.44 -100.6 198.25 -100.62 197.03 C-101.04 172.08 -101.14 147.13 -101.18 122.18 C-101.19 119.16 -101.2 116.13 -101.21 113.11 C-101.48 33.15 -101.48 33.15 -85.87 16.76 C-85.25 16.18 -84.63 15.6 -84 15 C-83.55 14.17 -83.09 13.35 -82.62 12.5 C-80.56 9.33 -78.2 7.98 -75 6 C-74.25 5.36 -73.49 4.73 -72.71 4.07 C-53.54 -10.55 -20.82 -10.38 0 0 Z " fill="#FADE5C" transform="translate(1027,54)"/>
<path d="M0 0 C1.01 -0 2.02 -0.01 3.06 -0.01 C4.73 -0.01 4.73 -0.01 6.43 -0 C8.18 -0.01 8.18 -0.01 9.97 -0.01 C13.17 -0.01 16.38 -0.01 19.59 -0.01 C22.94 -0 26.29 -0.01 29.64 -0.01 C35.27 -0.01 40.9 -0.01 46.53 -0 C53.04 0 59.55 0 66.07 -0.01 C71.65 -0.01 77.24 -0.01 82.83 -0.01 C86.17 -0.01 89.5 -0.01 92.84 -0.01 C96.56 -0.01 100.29 -0.01 104.01 -0 C105.12 -0 106.23 -0.01 107.38 -0.01 C108.38 -0.01 109.39 -0 110.43 0 C111.76 0 111.76 0 113.1 0 C115.22 0.13 115.22 0.13 117.22 1.13 C117.22 14.33 117.22 27.53 117.22 41.13 C78.11 41.62 78.11 41.62 38.22 42.13 C38.71 44.6 38.71 44.6 39.22 47.13 C39.3 49.23 39.32 51.34 39.31 53.44 C39.31 54.7 39.31 55.95 39.3 57.25 C39.3 57.91 39.3 58.58 39.29 59.26 C39.28 61.36 39.27 63.46 39.27 65.56 C39.25 70.77 39.23 75.99 39.21 81.2 C39.19 85.61 39.17 90.02 39.16 94.42 C39.15 96.48 39.14 98.54 39.13 100.59 C39.06 109.91 39.06 109.91 40.22 119.13 C42.79 120.41 44.66 120.27 47.54 120.3 C48.65 120.31 49.76 120.33 50.91 120.34 C52.11 120.35 53.32 120.36 54.56 120.37 C57.09 120.41 59.62 120.44 62.15 120.47 C66.16 120.52 70.17 120.57 74.18 120.6 C78.03 120.64 81.89 120.69 85.74 120.75 C86.95 120.76 88.15 120.76 89.39 120.77 C90.51 120.79 91.62 120.81 92.77 120.82 C93.75 120.83 94.73 120.84 95.74 120.86 C98.22 121.13 98.22 121.13 101.22 123.13 C101.48 126.18 101.57 129.02 101.51 132.07 C101.51 132.86 101.5 133.64 101.5 134.45 C101.49 137.38 101.44 140.32 101.4 143.25 C101.34 149.81 101.28 156.37 101.22 163.13 C80.43 163.13 59.64 163.13 38.22 163.13 C38.71 171.05 38.71 171.05 39.22 179.13 C39.45 187.96 39.45 187.96 39.48 191 C39.49 191.68 39.5 192.35 39.51 193.04 C39.52 193.73 39.53 194.42 39.53 195.13 C39.55 196.58 39.58 198.04 39.6 199.5 C39.65 203.27 39.7 207.05 39.75 210.82 C39.8 214.7 39.86 218.57 39.91 222.45 C40.02 230.01 40.12 237.57 40.22 245.13 C41.14 245.14 42.06 245.15 43.01 245.16 C51.7 245.26 60.38 245.36 69.06 245.47 C73.52 245.52 77.99 245.57 82.45 245.62 C86.76 245.67 91.06 245.72 95.37 245.78 C97.01 245.8 98.66 245.82 100.3 245.84 C102.6 245.86 104.9 245.89 107.2 245.92 C108.51 245.94 109.82 245.95 111.17 245.97 C114.22 246.13 114.22 246.13 116.22 247.13 C116.38 252.64 116.55 258.16 116.7 263.68 C116.75 265.56 116.81 267.44 116.87 269.31 C116.95 272.01 117.02 274.7 117.1 277.4 C117.12 278.24 117.15 279.09 117.18 279.95 C117.33 285.9 117.33 285.9 116.22 288.13 C100.48 288.17 84.73 288.21 68.99 288.23 C61.68 288.24 54.37 288.26 47.06 288.28 C40.7 288.3 34.33 288.31 27.96 288.32 C24.58 288.32 21.21 288.32 17.84 288.34 C14.08 288.35 10.31 288.35 6.55 288.35 C5.43 288.36 4.3 288.37 3.14 288.38 C2.12 288.37 1.1 288.37 0.05 288.37 C-0.84 288.37 -1.73 288.37 -2.65 288.37 C-4.78 288.13 -4.78 288.13 -6.78 286.13 C-7.03 284.05 -7.03 284.05 -7.03 281.43 C-7.03 280.43 -7.04 279.44 -7.04 278.41 C-7.04 277.31 -7.03 276.2 -7.02 275.07 C-7.02 273.9 -7.03 272.74 -7.03 271.53 C-7.03 268.29 -7.02 265.05 -7.01 261.8 C-7.01 258.3 -7.01 254.81 -7.01 251.31 C-7.01 245.25 -7.01 239.19 -6.99 233.13 C-6.98 224.37 -6.97 215.61 -6.97 206.85 C-6.97 192.64 -6.95 178.42 -6.93 164.21 C-6.92 150.4 -6.9 136.59 -6.89 122.78 C-6.89 121.93 -6.89 121.08 -6.89 120.2 C-6.89 115.94 -6.89 111.67 -6.88 107.4 C-6.86 71.98 -6.83 36.55 -6.78 1.13 C-4.33 -0.1 -2.74 0 0 0 Z " fill="#FADE5B" transform="translate(1097.78271484375,50.873016357421875)"/>
<path d="M0 0 C1.36 0 1.36 0 2.74 0.01 C4.13 0 4.13 0 5.54 0 C7.5 0 9.46 0 11.42 0.01 C14.42 0.01 17.42 0.01 20.42 0 C22.32 0 24.22 0 26.11 0.01 C27.01 0 27.91 0 28.84 0 C30.1 0 30.1 0 31.38 0.01 C32.12 0.01 32.85 0.01 33.61 0.01 C35.56 0.14 35.56 0.14 38.56 1.14 C38.56 95.85 38.56 190.56 38.56 288.14 C24.04 288.14 9.52 288.14 -5.44 288.14 C-7.33 284.37 -7.69 283.2 -7.69 279.23 C-7.69 278.24 -7.7 277.24 -7.7 276.22 C-7.7 275.13 -7.69 274.04 -7.69 272.92 C-7.69 271.76 -7.69 270.6 -7.69 269.41 C-7.7 266.19 -7.69 262.98 -7.69 259.76 C-7.68 256.3 -7.69 252.83 -7.69 249.36 C-7.69 242.57 -7.69 235.78 -7.68 228.98 C-7.67 221.08 -7.67 213.18 -7.67 205.27 C-7.67 191.18 -7.66 177.08 -7.65 162.98 C-7.63 149.29 -7.62 135.6 -7.63 121.91 C-7.63 121.06 -7.63 120.22 -7.63 119.35 C-7.63 118.09 -7.63 118.09 -7.63 116.8 C-7.63 101.22 -7.62 85.65 -7.61 70.08 C-7.61 64.56 -7.61 59.05 -7.61 53.53 C-7.61 46.82 -7.6 40.1 -7.59 33.39 C-7.59 29.96 -7.58 26.53 -7.59 23.1 C-7.59 19.39 -7.58 15.68 -7.57 11.98 C-7.58 10.88 -7.58 9.79 -7.58 8.66 C-7.58 7.67 -7.57 6.69 -7.57 5.67 C-7.57 4.81 -7.57 3.96 -7.57 3.07 C-7.28 -1.35 -3.6 0.01 0 0 Z M-5.44 286.14 C-5.44 286.47 -5.44 286.8 -5.44 287.14 C-3.13 287.14 -0.82 287.14 1.56 287.14 C1.56 286.81 1.56 286.48 1.56 286.14 C-0.75 286.14 -3.06 286.14 -5.44 286.14 Z M5.56 286.14 C5.56 286.47 5.56 286.8 5.56 287.14 C12.82 287.14 20.08 287.14 27.56 287.14 C27.56 286.81 27.56 286.48 27.56 286.14 C20.3 286.14 13.04 286.14 5.56 286.14 Z M28.56 286.14 C28.56 286.47 28.56 286.8 28.56 287.14 C31.53 287.14 34.5 287.14 37.56 287.14 C37.56 286.81 37.56 286.48 37.56 286.14 C34.59 286.14 31.62 286.14 28.56 286.14 Z " fill="#FA5857" transform="translate(345.4399108886719,50.861053466796875)"/>
<path d="M0 0 C1.79 0.01 1.79 0.01 3.62 0.02 C5.49 0.05 5.49 0.05 7.41 0.08 C8.66 0.08 9.9 0.09 11.19 0.09 C20.44 0.17 20.44 0.17 23.91 1.33 C23.91 28.72 23.91 56.11 23.91 84.33 C13.68 84.33 3.45 84.33 -7.09 84.33 C-9.56 81.86 -9.34 80.46 -9.38 77.1 C-9.37 76.37 -9.37 75.65 -9.37 74.9 C-9.37 74.13 -9.38 73.36 -9.38 72.58 C-9.4 70.04 -9.4 67.5 -9.39 64.96 C-9.4 63.2 -9.4 61.43 -9.41 59.67 C-9.41 55.98 -9.41 52.28 -9.41 48.59 C-9.4 43.85 -9.42 39.11 -9.44 34.37 C-9.46 30.73 -9.46 27.1 -9.46 23.46 C-9.46 21.71 -9.46 19.96 -9.47 18.21 C-9.48 15.77 -9.48 13.33 -9.47 10.89 C-9.47 10.16 -9.48 9.44 -9.49 8.69 C-9.46 5.79 -9.42 3.81 -7.74 1.38 C-5.19 -0.25 -3 -0.03 0 0 Z " fill="#F9DE5C" transform="translate(635.09375,212.671875)"/>
<path d="M0 0 C1.24 0 2.49 0 3.77 0 C5.72 0.03 5.72 0.03 7.71 0.05 C9.02 0.05 10.33 0.04 11.67 0.04 C21.39 0.1 21.39 0.1 23.65 2.36 C23.84 4.86 23.9 7.25 23.88 9.75 C23.88 10.51 23.88 11.27 23.88 12.06 C23.88 14.58 23.86 17.1 23.85 19.62 C23.84 21.37 23.84 23.11 23.84 24.86 C23.83 29.46 23.81 34.06 23.79 38.66 C23.77 43.35 23.76 48.04 23.75 52.73 C23.73 61.94 23.69 71.15 23.65 80.36 C19.27 80.41 14.9 80.45 10.52 80.47 C9.03 80.48 7.54 80.5 6.05 80.51 C3.91 80.54 1.77 80.55 -0.37 80.56 C-1.66 80.57 -2.95 80.58 -4.27 80.59 C-7.35 80.36 -7.35 80.36 -9.35 78.36 C-9.61 75.3 -9.61 75.3 -9.62 71.3 C-9.63 70.57 -9.63 69.85 -9.64 69.1 C-9.65 66.69 -9.65 64.28 -9.65 61.87 C-9.65 60.2 -9.66 58.52 -9.66 56.85 C-9.67 53.35 -9.67 49.84 -9.66 46.33 C-9.66 41.84 -9.67 37.34 -9.7 32.84 C-9.71 29.39 -9.71 25.94 -9.71 22.48 C-9.71 20.83 -9.72 19.17 -9.73 17.51 C-9.74 15.19 -9.73 12.87 -9.72 10.56 C-9.72 9.24 -9.72 7.92 -9.72 6.56 C-9.35 3.36 -9.35 3.36 -8 1.44 C-5.39 -0.25 -3.07 -0.01 0 0 Z " fill="#F9DE5C" transform="translate(635.34765625,91.63671875)"/>
<path d="M0 0 C1.01 -0 2.02 -0.01 3.06 -0.01 C4.73 -0.01 4.73 -0.01 6.43 -0 C8.18 -0.01 8.18 -0.01 9.97 -0.01 C13.17 -0.01 16.38 -0.01 19.59 -0.01 C22.94 -0 26.29 -0.01 29.64 -0.01 C35.27 -0.01 40.9 -0.01 46.53 -0 C53.04 0 59.55 0 66.07 -0.01 C71.65 -0.01 77.24 -0.01 82.83 -0.01 C86.17 -0.01 89.5 -0.01 92.84 -0.01 C96.56 -0.01 100.29 -0.01 104.01 -0 C105.12 -0 106.23 -0.01 107.38 -0.01 C108.38 -0.01 109.39 -0 110.43 0 C111.76 0 111.76 0 113.1 0 C115.22 0.13 115.22 0.13 117.22 1.13 C117.22 14.33 117.22 27.53 117.22 41.13 C92.47 41.13 67.72 41.13 42.22 41.13 C42.22 40.8 42.22 40.47 42.22 40.13 C77.86 39.63 77.86 39.63 114.22 39.13 C114.22 27.58 114.22 16.03 114.22 4.13 C75.61 4.13 37 4.13 -2.78 4.13 C-3.11 96.86 -3.44 189.59 -3.78 285.13 C35.16 285.13 74.1 285.13 114.22 285.13 C114.55 272.92 114.88 260.71 115.22 248.13 C90.8 248.13 66.38 248.13 41.22 248.13 C41.22 247.8 41.22 247.47 41.22 247.13 C65.97 247.13 90.72 247.13 116.22 247.13 C116.4 253.52 116.59 259.91 116.78 266.5 C116.84 268.52 116.9 270.54 116.97 272.62 C117.01 274.21 117.05 275.81 117.1 277.4 C117.12 278.23 117.15 279.06 117.18 279.92 C117.33 285.9 117.33 285.9 116.22 288.13 C100.48 288.17 84.73 288.21 68.99 288.23 C61.68 288.24 54.37 288.26 47.06 288.28 C40.7 288.3 34.33 288.31 27.96 288.32 C24.58 288.32 21.21 288.32 17.84 288.34 C14.08 288.35 10.31 288.35 6.55 288.35 C5.43 288.36 4.3 288.37 3.14 288.38 C2.12 288.37 1.1 288.37 0.05 288.37 C-0.84 288.37 -1.73 288.37 -2.65 288.37 C-4.78 288.13 -4.78 288.13 -6.78 286.13 C-7.03 284.05 -7.03 284.05 -7.03 281.43 C-7.03 280.43 -7.04 279.44 -7.04 278.41 C-7.04 277.31 -7.03 276.2 -7.02 275.07 C-7.02 273.9 -7.03 272.74 -7.03 271.53 C-7.03 268.29 -7.02 265.05 -7.01 261.8 C-7.01 258.3 -7.01 254.81 -7.01 251.31 C-7.01 245.25 -7.01 239.19 -6.99 233.13 C-6.98 224.37 -6.97 215.61 -6.97 206.85 C-6.97 192.64 -6.95 178.42 -6.93 164.21 C-6.92 150.4 -6.9 136.59 -6.89 122.78 C-6.89 121.93 -6.89 121.08 -6.89 120.2 C-6.89 115.94 -6.89 111.67 -6.88 107.4 C-6.86 71.98 -6.83 36.55 -6.78 1.13 C-4.33 -0.1 -2.74 0 0 0 Z " fill="#DBD895" transform="translate(1097.78271484375,50.873016357421875)"/>
<path d="M0 0 C1.36 0 1.36 0 2.74 0.01 C4.13 0 4.13 0 5.54 0 C7.5 0 9.46 0 11.42 0.01 C14.42 0.01 17.42 0.01 20.42 0 C22.32 0 24.22 0 26.11 0.01 C27.01 0 27.91 0 28.84 0 C30.1 0 30.1 0 31.38 0.01 C32.12 0.01 32.85 0.01 33.61 0.01 C35.56 0.14 35.56 0.14 38.56 1.14 C38.56 95.85 38.56 190.56 38.56 288.14 C24.04 288.14 9.52 288.14 -5.44 288.14 C-7.33 284.37 -7.69 283.2 -7.69 279.23 C-7.69 278.24 -7.7 277.24 -7.7 276.22 C-7.7 275.13 -7.69 274.04 -7.69 272.92 C-7.69 271.76 -7.69 270.6 -7.69 269.41 C-7.7 266.19 -7.69 262.98 -7.69 259.76 C-7.68 256.3 -7.69 252.83 -7.69 249.36 C-7.69 242.57 -7.69 235.78 -7.68 228.98 C-7.67 221.08 -7.67 213.18 -7.67 205.27 C-7.67 191.18 -7.66 177.08 -7.65 162.98 C-7.63 149.29 -7.62 135.6 -7.63 121.91 C-7.63 121.06 -7.63 120.22 -7.63 119.35 C-7.63 118.09 -7.63 118.09 -7.63 116.8 C-7.63 101.22 -7.62 85.65 -7.61 70.08 C-7.61 64.56 -7.61 59.05 -7.61 53.53 C-7.61 46.82 -7.6 40.1 -7.59 33.39 C-7.59 29.96 -7.58 26.53 -7.59 23.1 C-7.59 19.39 -7.58 15.68 -7.57 11.98 C-7.58 10.88 -7.58 9.79 -7.58 8.66 C-7.58 7.67 -7.57 6.69 -7.57 5.67 C-7.57 4.81 -7.57 3.96 -7.57 3.07 C-7.28 -1.35 -3.6 0.01 0 0 Z M-4.44 3.14 C-4.44 4.03 -4.44 4.03 -4.44 4.94 C-4.42 40.23 -4.4 75.52 -4.39 110.81 C-4.39 115.05 -4.39 119.28 -4.38 123.51 C-4.38 124.36 -4.38 125.2 -4.38 126.07 C-4.38 139.73 -4.37 153.39 -4.36 167.05 C-4.35 181.06 -4.35 195.07 -4.35 209.08 C-4.34 217.73 -4.34 226.39 -4.33 235.04 C-4.33 240.96 -4.33 246.89 -4.33 252.81 C-4.33 256.23 -4.33 259.66 -4.32 263.08 C-4.32 266.78 -4.32 270.49 -4.32 274.19 C-4.32 275.28 -4.31 276.38 -4.31 277.5 C-4.31 278.49 -4.31 279.47 -4.32 280.49 C-4.32 281.34 -4.32 282.2 -4.32 283.08 C-4.44 285.14 -4.44 285.14 -5.44 287.14 C8.75 287.14 22.94 287.14 37.56 287.14 C37.56 193.75 37.56 100.36 37.56 4.14 C34.18 2.45 30.34 3.02 26.61 3.04 C25.73 3.04 24.84 3.04 23.93 3.05 C21.1 3.05 18.27 3.06 15.44 3.08 C13.52 3.08 11.6 3.09 9.68 3.09 C4.97 3.1 0.27 3.12 -4.44 3.14 Z " fill="#C26280" transform="translate(345.4399108886719,50.861053466796875)"/>
<path d="M0 0 C0.99 0 0.99 0 2.01 0 C4.13 0.01 6.25 0.02 8.37 0.04 C9.8 0.04 11.24 0.04 12.68 0.05 C16.2 0.06 19.72 0.08 23.24 0.1 C24.91 3.43 24.36 7.16 24.34 10.82 C24.34 11.69 24.34 12.55 24.34 13.44 C24.33 16.2 24.32 18.96 24.3 21.72 C24.3 23.59 24.3 25.46 24.29 27.33 C24.28 31.92 24.26 36.51 24.24 41.1 C20.03 43.2 14.43 42.02 9.81 41.86 C7.75 41.79 5.69 41.73 3.63 41.68 C2.34 41.63 1.04 41.59 -0.29 41.55 C-2.08 41.49 -2.08 41.49 -3.9 41.43 C-6.76 41.1 -6.76 41.1 -8.76 39.1 C-8.93 36.23 -8.99 33.46 -8.95 30.59 C-8.95 29.75 -8.95 28.91 -8.94 28.04 C-8.93 25.35 -8.91 22.66 -8.88 19.97 C-8.87 18.15 -8.86 16.33 -8.86 14.51 C-8.83 10.04 -8.8 5.57 -8.76 1.1 C-5.84 -0.36 -3.26 -0.01 0 0 Z " fill="#FADE5B" transform="translate(712.7578125,50.90234375)"/>
<path d="M0 0 C4.38 -0.02 8.76 -0.04 13.13 -0.05 C14.62 -0.06 16.11 -0.07 17.6 -0.08 C19.74 -0.09 21.88 -0.09 24.02 -0.1 C25.31 -0.1 26.6 -0.11 27.93 -0.11 C31 0 31 0 33 1 C33 14.53 33 28.06 33 42 C22.77 42 12.54 42 2 42 C0.98 37.9 0.86 34.21 0.87 30.02 C0.87 29.26 0.87 28.49 0.86 27.7 C0.86 26.09 0.87 24.47 0.87 22.85 C0.87 20.38 0.87 17.9 0.86 15.42 C0.86 13.85 0.87 12.28 0.87 10.71 C0.87 9.97 0.86 9.23 0.86 8.46 C0.89 3.23 0.89 3.23 2 1 C1.34 0.67 0.68 0.34 0 0 Z " fill="#FADE5B" transform="translate(687,172)"/>
<path d="M0 0 C4.38 -0.07 8.76 -0.13 13.13 -0.16 C14.62 -0.18 16.11 -0.2 17.6 -0.23 C19.74 -0.26 21.88 -0.28 24.02 -0.29 C25.31 -0.31 26.6 -0.32 27.93 -0.34 C28.94 -0.23 29.96 -0.12 31 0 C33.28 3.42 33.2 4.4 33.01 8.38 C32.94 9.98 32.94 9.98 32.87 11.61 C32.81 12.73 32.75 13.85 32.69 15 C32.64 16.09 32.59 17.17 32.54 18.29 C31.59 38.41 31.59 38.41 30 40 C27.87 40.1 25.73 40.13 23.59 40.13 C22.29 40.13 20.99 40.14 19.65 40.14 C18.97 40.13 18.29 40.13 17.59 40.13 C15.51 40.13 13.43 40.13 11.35 40.14 C9.4 40.13 9.4 40.13 7.41 40.13 C6.2 40.13 5 40.13 3.76 40.13 C1 40 1 40 0 39 C-0.09 36.12 -0.12 33.26 -0.1 30.37 C-0.1 29.51 -0.09 28.64 -0.09 27.75 C-0.09 24.98 -0.08 22.21 -0.06 19.44 C-0.06 17.56 -0.05 15.69 -0.05 13.81 C-0.04 9.21 -0.02 4.6 0 0 Z " fill="#F9DE5D" transform="translate(704,297)"/>
<path d="M0 0 C1.57 -0 3.14 -0 4.71 -0 C7.92 -0 11.13 -0 14.34 0 C18.39 0.01 22.45 0 26.51 -0 C29.72 -0 32.93 -0 36.14 -0 C37.64 -0 39.13 -0 40.63 -0 C51.15 -0.02 61.59 0.42 72.09 1.13 C71.76 2.12 71.43 3.11 71.09 4.13 C30.83 4.13 -9.43 4.13 -50.91 4.13 C-50.58 97.52 -50.25 190.91 -49.91 287.13 C25.11 287.53 25.11 287.53 100.09 286.13 C100.85 281.58 101.27 277.55 101.41 272.98 C101.44 272 101.44 272 101.47 270.99 C101.53 268.91 101.59 266.84 101.65 264.76 C101.7 263.34 101.74 261.92 101.78 260.5 C101.89 257.05 101.99 253.59 102.09 250.13 C102.42 250.13 102.75 250.13 103.09 250.13 C103.11 255.53 103.13 260.92 103.14 266.31 C103.15 268.15 103.16 269.99 103.17 271.82 C103.18 274.46 103.18 277.09 103.19 279.72 C103.19 280.55 103.2 281.37 103.2 282.23 C103.2 284.2 103.15 286.16 103.09 288.13 C101.29 289.93 98.6 289.27 96.17 289.27 C94.25 289.28 94.25 289.28 92.28 289.29 C90.84 289.29 89.4 289.29 87.96 289.29 C86.46 289.3 84.95 289.3 83.45 289.31 C79.35 289.32 75.26 289.33 71.16 289.33 C68.6 289.34 66.05 289.34 63.49 289.34 C55.5 289.36 47.51 289.37 39.52 289.37 C30.28 289.38 21.04 289.39 11.8 289.42 C4.66 289.44 -2.47 289.45 -9.6 289.46 C-13.87 289.46 -18.13 289.46 -22.39 289.48 C-26.4 289.5 -30.41 289.5 -34.42 289.49 C-35.9 289.49 -37.37 289.49 -38.85 289.5 C-40.85 289.52 -42.86 289.51 -44.87 289.5 C-45.99 289.5 -47.12 289.5 -48.28 289.5 C-49.15 289.38 -50.02 289.26 -50.91 289.13 C-53.07 285.9 -53.16 285.04 -53.16 281.31 C-53.16 280.31 -53.16 279.32 -53.17 278.29 C-53.16 276.64 -53.16 276.64 -53.15 274.95 C-53.15 273.79 -53.15 272.62 -53.16 271.42 C-53.16 268.18 -53.15 264.93 -53.14 261.69 C-53.13 258.19 -53.14 254.7 -53.14 251.21 C-53.14 245.15 -53.13 239.09 -53.12 233.03 C-53.11 224.28 -53.1 215.52 -53.1 206.76 C-53.09 192.56 -53.08 178.35 -53.06 164.14 C-53.04 150.34 -53.03 136.54 -53.02 122.73 C-53.02 121.88 -53.02 121.03 -53.02 120.16 C-53.02 115.89 -53.01 111.62 -53.01 107.36 C-52.99 71.95 -52.95 36.54 -52.91 1.13 C-16.43 -0.03 -16.43 -0.03 0 0 Z " fill="#DB5B66" transform="translate(633.91015625,49.8671875)"/>
<path d="M0 0 C77 0 77 0 86 1 C86.99 1.99 86.99 1.99 88 3 C59.62 3 31.24 3 2 3 C2 96.72 2 190.44 2 287 C1.34 287 0.68 287 0 287 C0 192.29 0 97.58 0 0 Z " fill="#D57DA1" transform="translate(416,51)"/>
<path d="M0 0 C0.33 0 0.66 0 1 0 C1.33 90.09 1.66 180.18 2 273 C77.02 273.39 77.02 273.39 152 272 C152.76 267.45 153.18 263.42 153.32 258.85 C153.35 257.87 153.35 257.87 153.38 256.86 C153.44 254.78 153.5 252.7 153.56 250.62 C153.61 249.21 153.65 247.79 153.69 246.37 C153.8 242.91 153.9 239.46 154 236 C154.33 236 154.66 236 155 236 C155.02 241.39 155.04 246.79 155.05 252.18 C155.06 254.02 155.07 255.85 155.08 257.69 C155.09 260.32 155.09 262.96 155.1 265.59 C155.1 266.42 155.11 267.24 155.11 268.09 C155.11 270.06 155.06 272.03 155 274 C153.2 275.8 150.5 275.13 148.08 275.13 C146.15 275.13 146.15 275.13 144.18 275.14 C142.74 275.13 141.3 275.13 139.86 275.13 C138.35 275.13 136.85 275.13 135.34 275.13 C131.24 275.14 127.14 275.14 123.04 275.13 C118.75 275.13 114.47 275.13 110.19 275.14 C103 275.14 95.8 275.14 88.61 275.13 C80.28 275.12 71.95 275.13 63.63 275.13 C56.49 275.14 49.35 275.14 42.22 275.13 C37.95 275.13 33.68 275.13 29.41 275.14 C25.4 275.14 21.39 275.14 17.37 275.13 C15.9 275.13 14.42 275.13 12.94 275.13 C10.94 275.14 8.93 275.13 6.92 275.13 C5.8 275.13 4.67 275.13 3.51 275.13 C1 275 1 275 0 274 C-0.1 272.54 -0.12 271.07 -0.12 269.6 C-0.13 268.64 -0.13 267.68 -0.13 266.7 C-0.13 265.64 -0.12 264.57 -0.12 263.48 C-0.12 262.36 -0.12 261.24 -0.12 260.08 C-0.12 256.3 -0.12 252.52 -0.11 248.73 C-0.11 246.03 -0.11 243.33 -0.11 240.64 C-0.11 234.81 -0.11 228.98 -0.11 223.15 C-0.1 214.72 -0.1 206.3 -0.09 197.87 C-0.09 184.2 -0.08 170.53 -0.08 156.86 C-0.07 143.58 -0.06 130.29 -0.05 117.01 C-0.05 116.19 -0.05 115.37 -0.05 114.53 C-0.05 110.43 -0.05 106.32 -0.05 102.22 C-0.04 68.15 -0.02 34.07 0 0 Z " fill="#BC85B9" transform="translate(582,64)"/>
<path d="M0 0 C15.61 -0.02 31.22 -0.04 46.83 -0.05 C54.08 -0.06 61.33 -0.06 68.58 -0.08 C74.9 -0.09 81.21 -0.09 87.53 -0.09 C90.87 -0.1 94.22 -0.1 97.57 -0.11 C101.3 -0.11 105.03 -0.11 108.76 -0.11 C110.43 -0.12 110.43 -0.12 112.14 -0.12 C113.65 -0.12 113.65 -0.12 115.2 -0.12 C116.09 -0.12 116.97 -0.12 117.88 -0.12 C120 0 120 0 122 1 C122 14.2 122 27.4 122 41 C97.25 41 72.5 41 47 41 C47 40.67 47 40.34 47 40 C82.64 39.5 82.64 39.5 119 39 C119 27.45 119 15.9 119 4 C115.47 3.99 111.93 3.97 108.29 3.96 C96.64 3.91 84.99 3.84 73.34 3.76 C66.27 3.72 59.21 3.68 52.14 3.65 C45.32 3.63 38.51 3.59 31.7 3.54 C29.09 3.52 26.48 3.51 23.88 3.5 C20.24 3.49 16.6 3.46 12.97 3.43 C11.88 3.43 10.79 3.44 9.67 3.44 C8.69 3.42 7.7 3.41 6.68 3.4 C5.82 3.39 4.96 3.39 4.07 3.38 C3.39 3.26 2.7 3.13 2 3 C1.34 2.01 0.68 1.02 0 0 Z " fill="#DBD790" transform="translate(1093,51)"/>
<path d="M0 0 C0.33 0 0.66 0 1 0 C1.02 3.95 1.04 7.9 1.05 11.85 C1.06 13.86 1.08 15.87 1.09 17.87 C1.09 19.13 1.09 20.38 1.1 21.68 C1.1 22.84 1.11 24 1.11 25.2 C1 28 1 28 0 30 C-0.21 32.15 -0.37 34.31 -0.5 36.47 C-0.58 37.76 -0.67 39.05 -0.75 40.39 C-0.83 41.76 -0.92 43.13 -1 44.5 C-1.16 47.18 -1.33 49.85 -1.5 52.53 C-1.57 53.72 -1.64 54.91 -1.72 56.14 C-2 59 -2 59 -3 61 C-3.19 63.63 -3.33 66.24 -3.44 68.88 C-3.74 75 -4.4 80.86 -5.53 86.89 C-6.3 91.98 -6.45 97.1 -6.66 102.24 C-7 106 -7 106 -8 109.41 C-9.41 114.46 -9.42 119.37 -9.57 124.59 C-9.6 125.36 -9.63 126.13 -9.66 126.92 C-9.67 127.61 -9.69 128.3 -9.71 129 C-10.05 131.32 -10.92 132.94 -12 135 C-12.95 127.36 -12.92 120.25 -12.11 112.61 C-12.01 111.55 -11.9 110.49 -11.79 109.4 C-11.46 106 -11.1 102.59 -10.75 99.19 C-10.51 96.82 -10.28 94.45 -10.04 92.08 C-9.47 86.37 -8.89 80.66 -8.3 74.95 C-7.78 69.86 -7.28 64.76 -6.78 59.66 C-6.44 56.27 -6.1 52.89 -5.75 49.5 C-5.24 44.39 -4.73 39.28 -4.24 34.18 C-3.88 30.45 -3.51 26.73 -3.14 23.01 C-2.97 21.18 -2.79 19.35 -2.61 17.52 C-2.37 14.98 -2.12 12.43 -1.87 9.89 C-1.79 9.12 -1.72 8.35 -1.65 7.56 C-1.11 2.23 -1.11 2.23 0 0 Z " fill="#D95964" transform="translate(275,65)"/>
<path d="M0 0 C2.46 3.68 2.25 5.48 2.26 9.88 C2.26 10.59 2.27 11.29 2.27 12.01 C2.28 14.38 2.28 16.75 2.27 19.11 C2.28 20.8 2.28 22.5 2.29 24.19 C2.3 28.8 2.3 33.4 2.3 38.01 C2.3 41.85 2.31 45.7 2.31 49.54 C2.32 58.61 2.32 67.68 2.32 76.76 C2.31 86.11 2.32 95.47 2.34 104.82 C2.36 112.86 2.37 120.89 2.36 128.92 C2.36 133.72 2.36 138.52 2.38 143.31 C2.39 147.83 2.39 152.34 2.38 156.86 C2.37 158.51 2.38 160.17 2.38 161.82 C2.4 164.08 2.39 166.35 2.37 168.61 C2.37 170.51 2.37 170.51 2.37 172.45 C1.94 176.57 0.8 179.29 -1 183 C-2.25 179.25 -1.59 176.89 -1 173 C-0.9 170.53 -0.85 168.06 -0.84 165.59 C-0.84 164.88 -0.83 164.17 -0.83 163.43 C-0.81 161.06 -0.8 158.69 -0.79 156.32 C-0.79 154.62 -0.78 152.91 -0.76 151.21 C-0.74 146.59 -0.72 141.97 -0.7 137.36 C-0.67 132.53 -0.65 127.7 -0.62 122.87 C-0.57 113.73 -0.53 104.59 -0.48 95.44 C-0.43 85.04 -0.38 74.63 -0.32 64.22 C-0.21 42.81 -0.1 21.41 0 0 Z " fill="#E9DB7B" transform="translate(857,106)"/>
<path d="M0 0 C24.75 0 49.5 0 75 0 C75.19 6.39 75.37 12.79 75.56 19.38 C75.62 21.39 75.69 23.41 75.75 25.49 C75.79 27.08 75.84 28.68 75.88 30.27 C75.91 31.11 75.93 31.94 75.96 32.79 C76.11 38.77 76.11 38.77 75 41 C59.26 41.07 43.52 41.12 27.77 41.16 C20.47 41.17 13.16 41.19 5.85 41.23 C-0.52 41.26 -6.89 41.28 -13.26 41.28 C-16.63 41.29 -20.01 41.3 -23.38 41.32 C-27.14 41.34 -30.9 41.34 -34.67 41.34 C-35.79 41.35 -36.91 41.36 -38.07 41.37 C-39.09 41.37 -40.11 41.37 -41.17 41.36 C-42.06 41.36 -42.95 41.37 -43.86 41.37 C-44.57 41.25 -45.27 41.13 -46 41 C-46.66 40.01 -47.32 39.02 -48 38 C-8.07 38 31.86 38 73 38 C73.33 25.79 73.66 13.58 74 1 C49.58 1 25.16 1 0 1 C0 0.67 0 0.34 0 0 Z " fill="#AABE9D" transform="translate(1139,298)"/>
<path d="M0 0 C1.93 0.02 1.93 0.02 3.9 0.04 C4.62 0.04 5.33 0.05 6.06 0.05 C8.42 0.07 10.79 0.11 13.15 0.14 C14.81 0.16 16.47 0.18 18.12 0.19 C21.61 0.23 25.09 0.28 28.58 0.33 C32.99 0.4 37.4 0.44 41.82 0.48 C45.25 0.51 48.68 0.56 52.11 0.61 C53.73 0.63 55.36 0.65 56.98 0.66 C65.82 0.73 74.43 1.24 83.17 2.59 C83.94 2.71 84.71 2.83 85.51 2.95 C92.4 4.11 98.63 6.33 105 9.22 C105 9.88 105 10.54 105 11.22 C105.56 11.28 106.12 11.35 106.69 11.41 C109.95 12.56 111.69 14.72 114 17.22 C110.46 17.22 109.95 16.61 107.31 14.41 C94.17 4.32 75.67 4.77 59.83 4.86 C58.04 4.86 56.25 4.86 54.47 4.86 C50.76 4.86 47.06 4.87 43.35 4.89 C38.6 4.91 33.85 4.91 29.1 4.9 C25.43 4.9 21.76 4.91 18.09 4.92 C16.34 4.92 14.58 4.92 12.83 4.92 C10.4 4.92 7.96 4.93 5.52 4.95 C4.8 4.95 4.08 4.94 3.34 4.94 C-0.33 4.98 -1.86 5.13 -5 7.22 C-5.12 4.85 -5.12 4.85 -5 2.22 C-3 0.22 -3 0.22 0 0 Z " fill="#DED78C" transform="translate(768.9979095458984,49.77726745605469)"/>
<path d="M0 0 C0.33 0 0.66 0 1 0 C1 44.55 1 89.1 1 135 C0.67 135 0.34 135 0 135 C0 123.12 0 111.24 0 99 C-0.66 99 -1.32 99 -2 99 C-2 68.64 -2 38.28 -2 7 C-1.67 7 -1.34 7 -1 7 C-0.67 4.69 -0.34 2.38 0 0 Z " fill="#7DA5A1" transform="translate(928,122)"/>
<path d="M0 0 C5.93 -0.05 11.85 -0.09 17.78 -0.11 C19.8 -0.12 21.81 -0.13 23.83 -0.15 C26.73 -0.18 29.62 -0.19 32.52 -0.2 C33.42 -0.21 34.33 -0.22 35.26 -0.23 C36.1 -0.23 36.94 -0.23 37.8 -0.23 C38.54 -0.23 39.28 -0.24 40.04 -0.24 C42 0 42 0 45 2 C45.59 4.43 45.59 4.43 45.89 7.52 C46.07 9.25 46.07 9.25 46.25 11.02 C46.37 12.27 46.49 13.53 46.61 14.82 C46.8 16.75 46.8 16.75 47 18.72 C47.27 21.45 47.53 24.19 47.79 26.92 C48.12 30.4 48.46 33.89 48.81 37.37 C49.14 40.71 49.47 44.04 49.79 47.38 C49.91 48.63 50.04 49.87 50.16 51.15 C50.72 57.13 51.14 62.99 51 69 C50.67 69 50.34 69 50 69 C48.47 62.5 47.33 56.06 46.5 49.44 C46.31 47.93 46.31 47.93 46.11 46.39 C44.84 35.71 44.21 24.99 43.65 14.25 C43.61 13.58 43.57 12.9 43.54 12.21 C43.44 10.36 43.34 8.52 43.25 6.67 C43.29 4.08 43.29 4.08 42 3 C39.81 2.9 37.63 2.87 35.44 2.87 C34.77 2.87 34.11 2.87 33.42 2.86 C32.01 2.86 30.59 2.87 29.17 2.87 C27.04 2.87 24.9 2.87 22.76 2.86 C15.77 2.86 8.93 3.03 2 4 C1.46 10.63 0.92 17.22 1.06 23.88 C1.12 28.62 0.29 32.44 -1 37 C-1.4 39.33 -1.71 41.65 -2 44 C-2.33 44 -2.66 44 -3 44 C-3.32 29.33 -3.03 14.41 0 0 Z " fill="#C26585" transform="translate(187,51)"/>
<path d="M0 0 C7.92 -0.02 15.84 -0.04 23.76 -0.05 C27.43 -0.06 31.11 -0.06 34.79 -0.08 C38.33 -0.09 41.88 -0.09 45.43 -0.09 C46.78 -0.1 48.14 -0.1 49.49 -0.11 C51.39 -0.11 53.28 -0.11 55.17 -0.11 C56.79 -0.12 56.79 -0.12 58.44 -0.12 C61 0 61 0 63 1 C62.67 2.32 62.34 3.64 62 5 C61.34 4.34 60.68 3.68 60 3 C57.49 2.71 57.49 2.71 54.54 2.77 C53.4 2.77 52.26 2.77 51.08 2.77 C49.85 2.78 48.61 2.79 47.34 2.8 C45.44 2.81 45.44 2.81 43.51 2.81 C40.15 2.82 36.8 2.84 33.44 2.86 C30.01 2.88 26.59 2.89 23.16 2.9 C16.44 2.92 9.72 2.96 3 3 C3 14.88 3 26.76 3 39 C8.61 39.33 14.22 39.66 20 40 C20.33 40.66 20.66 41.32 21 42 C17.88 42.06 14.75 42.09 11.62 42.12 C10.74 42.14 9.85 42.16 8.93 42.18 C7.65 42.19 7.65 42.19 6.35 42.2 C5.17 42.21 5.17 42.21 3.97 42.23 C2 42 2 42 0 40 C-0.18 36.99 -0.23 34.07 -0.2 31.05 C-0.19 30.17 -0.19 29.28 -0.19 28.37 C-0.18 25.54 -0.15 22.71 -0.12 19.88 C-0.11 17.96 -0.11 16.04 -0.1 14.12 C-0.08 9.41 -0.04 4.71 0 0 Z " fill="#E7DA7F" transform="translate(999,178)"/>
<path d="M0 0 C0.99 0.33 1.98 0.66 3 1 C3 1.78 3.01 2.57 3.01 3.37 C3.05 10.82 3.11 18.26 3.18 25.7 C3.22 29.52 3.26 33.35 3.27 37.17 C3.29 40.88 3.32 44.58 3.37 48.28 C3.38 49.68 3.39 51.08 3.39 52.48 C3.42 71.62 9.08 90.06 22.69 103.81 C23.79 104.88 24.89 105.94 26 107 C27 108 28 109 29 110 C19.66 106.95 12.58 97.39 8 89 C4.99 82.88 3.41 76.89 2.39 70.15 C2.22 68.03 2.22 68.03 1 67 C-0.33 59.27 -0.13 51.36 -0.1 43.55 C-0.1 42.3 -0.09 41.05 -0.09 39.76 C-0.09 36.47 -0.08 33.18 -0.07 29.89 C-0.06 26.52 -0.05 23.15 -0.05 19.77 C-0.04 13.18 -0.02 6.59 0 0 Z " fill="#DCD890" transform="translate(927,221)"/>
<path d="M0 0 C5.49 1.18 8.41 2.44 12 7 C13.51 9.94 14.77 12.94 16 16 C16.33 16.66 16.66 17.32 17 18 C17.1 19.52 17.15 21.04 17.16 22.57 C17.17 23.51 17.18 24.46 17.19 25.44 C17.19 26.47 17.2 27.5 17.2 28.56 C17.21 29.62 17.21 30.68 17.22 31.78 C17.23 34.03 17.24 36.28 17.24 38.54 C17.25 41.96 17.28 45.38 17.31 48.8 C17.32 50.99 17.32 53.18 17.33 55.38 C17.34 56.39 17.35 57.4 17.37 58.45 C17.34 67.67 15.66 75.59 10 83 C9.34 82.34 8.68 81.68 8 81 C8.28 80.37 8.55 79.74 8.84 79.09 C9.2 78.24 9.56 77.38 9.94 76.5 C10.3 75.66 10.66 74.83 11.03 73.97 C13.25 67.17 13.17 60.03 13.2 52.95 C13.21 52 13.21 51.06 13.22 50.09 C13.23 48.11 13.24 46.13 13.24 44.15 C13.25 41.14 13.28 38.14 13.31 35.13 C13.32 33.19 13.32 31.26 13.33 29.32 C13.34 28.43 13.35 27.55 13.37 26.64 C13.34 19.56 12.62 11.99 7.81 6.5 C7.21 6 6.62 5.51 6 5 C6 4.34 6 3.68 6 3 C5.2 2.88 4.39 2.75 3.56 2.62 C2.72 2.42 1.87 2.21 1 2 C0.67 1.34 0.34 0.68 0 0 Z " fill="#CC5B6D" transform="translate(492,93)"/>
<path d="M0 0 C0.99 0.5 0.99 0.5 2 1 C1.9 1.87 1.9 1.87 1.79 2.75 C-0.43 21.21 -2.31 39.69 -4.13 58.19 C-4.21 58.97 -4.29 59.76 -4.37 60.57 C-4.69 63.84 -5.01 67.1 -5.3 70.37 C-5.9 76.9 -5.9 76.9 -7 78 C-8.9 78.09 -10.81 78.12 -12.71 78.11 C-13.93 78.11 -15.16 78.11 -16.41 78.11 C-17.76 78.11 -19.1 78.1 -20.44 78.1 C-21.81 78.1 -23.17 78.09 -24.54 78.09 C-28.14 78.09 -31.74 78.08 -35.35 78.07 C-39.02 78.06 -42.69 78.05 -46.37 78.05 C-53.58 78.04 -60.79 78.02 -68 78 C-64.84 76.14 -62.56 75.76 -58.91 75.8 C-57.9 75.81 -56.89 75.82 -55.85 75.82 C-54.76 75.84 -53.68 75.86 -52.56 75.88 C-51.44 75.88 -50.32 75.89 -49.17 75.9 C-45.59 75.92 -42.01 75.96 -38.44 76 C-33.73 76.05 -29.02 76.09 -24.31 76.12 C-22.68 76.15 -22.68 76.15 -21.01 76.18 C-20.01 76.18 -19 76.19 -17.96 76.2 C-17.07 76.21 -16.18 76.22 -15.27 76.23 C-12.72 76.15 -12.72 76.15 -10 74 C-7.56 67.79 -7.39 61.29 -6.94 54.69 C-6.78 52.52 -6.63 50.36 -6.46 48.2 C-6.4 47.25 -6.33 46.3 -6.27 45.32 C-6 43 -6 43 -5 41 C-4.78 39.12 -4.61 37.23 -4.46 35.34 C-4.38 34.21 -4.29 33.09 -4.2 31.94 C-4.11 30.76 -4.03 29.59 -3.94 28.38 C-3.85 27.19 -3.76 26.01 -3.66 24.79 C-3.44 21.86 -3.22 18.93 -3 16 C-2.34 16 -1.68 16 -1 16 C-1.01 15.01 -1.02 14.03 -1.04 13.01 C-1.04 11.73 -1.05 10.45 -1.06 9.12 C-1.07 7.85 -1.09 6.57 -1.1 5.26 C-1 2 -1 2 0 0 Z " fill="#8C5578" transform="translate(199,261)"/>
<path d="M0 0 C0.78 0.02 1.57 0.04 2.38 0.06 C4.03 0.11 5.68 0.16 7.34 0.21 C9.87 0.29 12.4 0.36 14.93 0.42 C16.53 0.47 18.14 0.51 19.75 0.56 C20.88 0.59 20.88 0.59 22.04 0.62 C25.18 0.73 27.75 0.92 30.74 1.91 C33.19 9.51 32.94 17 32.74 24.91 C32.41 24.91 32.08 24.91 31.74 24.91 C31.74 20.95 31.74 16.99 31.74 12.91 C31.08 12.91 30.42 12.91 29.74 12.91 C29.25 8.95 29.25 8.95 28.74 4.91 C24.73 3.96 20.99 3.79 16.87 3.78 C15.55 3.78 14.24 3.78 12.88 3.78 C11.86 3.78 11.86 3.78 10.82 3.78 C8.75 3.79 6.68 3.78 4.6 3.78 C3.29 3.78 1.97 3.78 0.62 3.78 C-0.58 3.78 -1.78 3.78 -3.02 3.78 C-5.89 3.9 -8.46 4.25 -11.26 4.91 C-11.04 5.59 -10.82 6.26 -10.6 6.95 C-7.47 18.17 -7.97 29.35 -8.26 40.91 C-8.59 40.91 -8.92 40.91 -9.26 40.91 C-9.26 38.27 -9.26 35.63 -9.26 32.91 C-9.92 32.91 -10.58 32.91 -11.26 32.91 C-11.79 28.52 -12.31 24.12 -12.82 19.73 C-12.97 18.48 -13.12 17.23 -13.28 15.95 C-13.42 14.75 -13.56 13.55 -13.7 12.31 C-13.83 11.2 -13.96 10.1 -14.1 8.96 C-14.25 6.04 -13.98 3.73 -13.26 0.91 C-8.82 -0.22 -4.54 -0.14 0 0 Z " fill="#C85D75" transform="translate(111.2578125,50.0859375)"/>
<path d="M0 0 C7.68 -0.02 15.35 -0.04 23.03 -0.05 C26.59 -0.06 30.15 -0.06 33.72 -0.08 C37.81 -0.09 41.9 -0.09 46 -0.1 C47.92 -0.11 47.92 -0.11 49.89 -0.11 C51.66 -0.11 51.66 -0.11 53.47 -0.11 C55.04 -0.12 55.04 -0.12 56.64 -0.12 C59 0 59 0 60 1 C60.09 3.96 60.12 6.89 60.1 9.85 C60.1 10.63 60.1 11.42 60.09 12.23 C60.09 15.17 60.08 18.12 60.06 21.06 C60.04 27.64 60.02 34.22 60 41 C39.54 41 19.08 41 -2 41 C1.38 38.75 2.6 38.73 6.57 38.68 C8.28 38.65 8.28 38.65 10.03 38.62 C11.26 38.61 12.49 38.6 13.76 38.59 C15.02 38.57 16.28 38.55 17.58 38.53 C20.93 38.48 24.28 38.44 27.63 38.4 C31.05 38.36 34.47 38.31 37.88 38.26 C44.59 38.16 51.29 38.08 58 38 C58.02 33.03 58.04 28.07 58.05 23.1 C58.06 21.41 58.07 19.72 58.08 18.03 C58.09 15.6 58.09 13.18 58.1 10.75 C58.1 9.99 58.11 9.23 58.11 8.45 C58.11 6.63 58.06 4.82 58 3 C56.28 1.28 54 1.83 51.65 1.79 C50.51 1.77 49.37 1.75 48.2 1.73 C46.33 1.71 46.33 1.71 44.43 1.68 C43.17 1.66 41.91 1.64 40.6 1.62 C37.24 1.57 33.87 1.52 30.51 1.47 C27.08 1.42 23.64 1.36 20.21 1.31 C13.48 1.2 6.74 1.1 0 1 C0 0.67 0 0.34 0 0 Z " fill="#DAD898" transform="translate(1139,173)"/>
<path d="M0 0 C0.66 0 1.32 0 2 0 C2.03 3.31 2.05 6.62 2.06 9.94 C2.07 10.86 2.08 11.79 2.09 12.74 C2.11 18.58 1.83 24.22 1 30 C0.67 30.33 0.34 30.66 0 31 C-0.13 32.82 -0.2 34.64 -0.25 36.47 C-0.28 37.6 -0.31 38.73 -0.35 39.89 C-0.41 42.27 -0.46 44.64 -0.52 47.02 C-0.69 52.89 -1.1 58.34 -2.54 64.04 C-3.46 67.99 -3.46 72.05 -3.66 76.08 C-3.99 78.93 -4.67 80.52 -6 83 C-6.47 66.78 -5.28 51.05 -3.44 34.94 C-2.65 27.87 -1.99 20.78 -1.31 13.69 C-1.18 12.31 -1.05 10.93 -0.91 9.55 C-0.61 6.37 -0.3 3.18 0 0 Z " fill="#D06076" transform="translate(178,140)"/>
<path d="M0 0 C0.33 0 0.66 0 1 0 C1.06 0.59 1.11 1.18 1.17 1.78 C1.42 4.5 1.68 7.22 1.94 9.94 C2.02 10.86 2.11 11.79 2.2 12.74 C2.75 18.5 3.34 24.25 4 30 C4.61 35.35 5.21 40.71 5.81 46.06 C5.9 46.83 5.98 47.6 6.07 48.38 C7.15 57.97 8.17 67.56 9.12 77.16 C9.21 78.07 9.3 78.99 9.39 79.93 C9.83 84.4 10.26 88.87 10.69 93.34 C10.85 94.97 11.01 96.59 11.17 98.22 C11.24 98.97 11.31 99.71 11.38 100.48 C11.67 103.49 12.04 106.12 13 109 C11.51 109.5 11.51 109.5 10 110 C8.37 103.68 7.68 97.7 7.5 91.19 C7.25 84.61 6.7 78.31 5.47 71.84 C4.75 67.48 4.55 63.1 4.28 58.7 C3.99 54.8 3.56 50.94 3.06 47.06 C2.98 46.39 2.89 45.71 2.81 45.01 C2.4 41.83 1.95 38.67 1.43 35.5 C-0.44 23.68 -0.19 11.93 0 0 Z " fill="#BF668A" transform="translate(153,157)"/>
<path d="M0 0 C9.9 0 19.8 0 30 0 C31.67 3.33 31.12 7.07 31.1 10.73 C31.1 11.59 31.09 12.45 31.09 13.34 C31.09 16.1 31.08 18.86 31.06 21.62 C31.06 23.49 31.05 25.36 31.05 27.23 C31.04 31.82 31.02 36.41 31 41 C28.1 42.45 25.69 42.01 22.46 41.88 C20.51 41.81 20.51 41.81 18.52 41.73 C17.14 41.68 15.76 41.62 14.38 41.56 C12.99 41.51 11.6 41.46 10.21 41.4 C6.81 41.27 3.4 41.14 0 41 C0 40.67 0 40.34 0 40 C9.24 39.67 18.48 39.34 28 39 C28 27.45 28 15.9 28 4 C14.14 3.51 14.14 3.51 0 3 C0 2.01 0 1.02 0 0 Z " fill="#DCD78F" transform="translate(706,51)"/>
<path d="M0 0 C0.68 -0 1.36 -0 2.06 -0.01 C4.29 -0.01 6.53 -0.01 8.76 -0 C10.32 -0 11.89 -0.01 13.45 -0.01 C16.73 -0.01 20 -0.01 23.27 -0 C27.45 0 31.63 0 35.81 -0 C39.03 -0.01 42.26 -0.01 45.49 -0 C47.03 -0 48.57 -0 50.11 -0.01 C66.29 -0.03 66.29 -0.03 73.06 1.13 C74.05 2.12 74.05 2.12 75.06 3.13 C46.68 3.13 18.3 3.13 -10.94 3.13 C-10.94 7.42 -10.94 11.71 -10.94 16.13 C-11.27 16.13 -11.6 16.13 -11.94 16.13 C-11.94 11.18 -11.94 6.23 -11.94 1.13 C-7.7 0.28 -4.28 0 0 0 Z " fill="#C9627E" transform="translate(428.9423828125,50.87060546875)"/>
<path d="M0 0 C0.33 0 0.66 0 1 0 C1.06 3.69 1.09 7.37 1.12 11.06 C1.15 12.62 1.15 12.62 1.18 14.21 C1.21 19.95 0.8 24.57 -1 30 C-1.82 35.79 -2.05 41.59 -1.94 47.44 C-1.86 54.59 -1.96 62.94 -6 69 C-6.99 69.99 -6.99 69.99 -8 71 C-7.96 70.05 -7.92 69.1 -7.88 68.12 C-7.65 64.9 -7.65 64.9 -10 63 C-10.2 59.96 -10.2 59.96 -10.12 56.38 C-10.11 55.19 -10.09 54 -10.07 52.77 C-10.05 51.86 -10.02 50.94 -10 50 C-9.67 50 -9.34 50 -9 50 C-8.94 50.71 -8.88 51.42 -8.82 52.15 C-8.73 53.07 -8.65 53.99 -8.56 54.94 C-8.48 55.85 -8.4 56.77 -8.32 57.71 C-8.24 59.96 -8.24 59.96 -7 61 C-6.45 55.5 -5.9 50.01 -5.35 44.51 C-5.16 42.65 -4.97 40.78 -4.78 38.92 C-3.33 24.47 -3.33 24.47 -2 10 C-1.34 10 -0.68 10 0 10 C0 6.7 0 3.4 0 0 Z " fill="#B55B76" transform="translate(261,206)"/>
<path d="M0 0 C1.21 0.03 1.21 0.03 2.44 0.06 C1.14 1.55 1.14 1.55 -0.19 3.06 C-1.32 4.39 -2.44 5.73 -3.56 7.06 C-4.07 7.65 -4.57 8.24 -5.09 8.85 C-15.61 21.94 -18.93 37.41 -19.25 53.81 C-19.28 55 -19.32 56.18 -19.35 57.41 C-19.43 60.29 -19.5 63.18 -19.56 66.06 C-21.05 66.56 -21.05 66.56 -22.56 67.06 C-22.77 47.47 -22.96 23.12 -8.45 7.84 C-7.83 7.25 -7.2 6.67 -6.56 6.06 C-5.53 4.42 -4.52 2.75 -3.56 1.06 C-2.56 0.06 -2.56 0.06 0 0 Z " fill="#E3D77D" transform="translate(949.5625,62.9375)"/>
<path d="M0 0 C4.21 0.01 8.41 0.01 12.62 0.02 C20.78 0.03 28.94 0.05 37.1 0.07 C37.1 0.73 37.1 1.39 37.1 2.07 C36.22 2.08 35.34 2.09 34.43 2.1 C26.13 2.2 17.83 2.3 9.54 2.41 C5.27 2.46 1 2.52 -3.26 2.57 C-7.38 2.61 -11.5 2.67 -15.62 2.72 C-17.19 2.74 -18.76 2.76 -20.33 2.78 C-22.53 2.8 -24.73 2.83 -26.93 2.86 C-28.81 2.89 -28.81 2.89 -30.72 2.91 C-33.33 3.04 -35.41 3.37 -37.9 4.07 C-40.22 4.15 -42.54 4.18 -44.85 4.17 C-45.51 4.16 -46.17 4.16 -46.85 4.16 C-48.95 4.16 -51.05 4.14 -53.15 4.13 C-54.58 4.13 -56 4.12 -57.43 4.12 C-60.92 4.11 -64.41 4.09 -67.9 4.07 C-67.9 7.37 -67.9 10.67 -67.9 14.07 C-68.23 14.07 -68.56 14.07 -68.9 14.07 C-68.9 10.11 -68.9 6.15 -68.9 2.07 C-63.81 0.37 -58.45 0.68 -53.11 0.51 C-52.46 0.49 -51.81 0.47 -51.13 0.45 C-34.09 -0.09 -17.05 -0.05 0 0 Z " fill="#875787" transform="translate(650.8999633789063,49.93133544921875)"/>
<path d="M0 0 C2 1 2 1 3.61 4.65 C5.65 11.2 5.36 17.78 5.25 24.56 C5.24 26.01 5.23 27.46 5.22 28.9 C5.17 33.94 5.09 38.97 5 44 C4.98 45.01 4.96 46.02 4.95 47.07 C4.68 62.05 4.36 77.02 4 92 C3.67 92 3.34 92 3 92 C2.06 83.2 1.91 74.48 1.98 65.65 C2.08 52.9 2.02 40.16 1.68 27.41 C1.64 25.94 1.61 24.47 1.58 23 C1.53 20.95 1.48 18.9 1.41 16.86 C1.38 15.7 1.35 14.54 1.32 13.34 C1.09 9.89 1.09 9.89 -0.09 6.26 C-1 3 -1 3 0 0 Z " fill="#9F5675" transform="translate(504,234)"/>
<path d="M0 0 C-0.66 0.33 -1.32 0.66 -2 1 C-4.34 0.17 -6.55 -0.86 -8.81 -1.89 C-17.76 -5 -26.73 -5.29 -36.12 -5.19 C-37.24 -5.19 -38.36 -5.19 -39.5 -5.19 C-51.76 -5.26 -51.76 -5.26 -63.38 -1.88 C-67.68 0.11 -67.68 0.11 -71 -1 C-69.39 -4.21 -66.7 -4.74 -63.43 -5.97 C-42.33 -12.29 -19.03 -11.8 0 0 Z " fill="#E1D884" transform="translate(1032,57)"/>
<path d="M0 0 C0.66 0 1.32 0 2 0 C2.06 0.76 2.12 1.52 2.18 2.3 C2.27 3.29 2.35 4.29 2.44 5.31 C2.56 6.79 2.56 6.79 2.68 8.3 C2.92 11.09 2.92 11.09 4 14 C4.18 16.65 4.32 19.29 4.44 21.94 C4.69 26.97 5.04 31.85 6 36.81 C7.78 46.34 8 56.32 8 66 C6.18 64.44 5.12 63.47 4.52 61.11 C4.45 60.05 4.45 60.05 4.38 58.96 C4.31 58.14 4.24 57.33 4.18 56.49 C4.12 55.61 4.06 54.72 4 53.81 C3.85 51.91 3.7 50 3.54 48.09 C3.46 47.1 3.37 46.1 3.29 45.07 C2.9 40.98 2.35 36.92 1.79 32.85 C0.28 21.82 -0.38 11.13 0 0 Z " fill="#C7617D" transform="translate(218,272)"/>
<path d="M0 0 C4.38 -0.02 8.76 -0.04 13.13 -0.05 C14.62 -0.06 16.11 -0.07 17.6 -0.08 C19.74 -0.09 21.88 -0.09 24.02 -0.1 C25.31 -0.1 26.6 -0.11 27.93 -0.11 C31 0 31 0 33 1 C33 14.53 33 28.06 33 42 C22.77 42 12.54 42 2 42 C2.33 41.34 2.66 40.68 3 40 C12.24 39.67 21.48 39.34 31 39 C31 27.12 31 15.24 31 3 C21.55 2.75 21.55 2.75 12.09 2.52 C10.33 2.47 10.33 2.47 8.54 2.41 C6.73 2.37 6.73 2.37 4.89 2.32 C2 2 2 2 0 0 Z " fill="#E4DA85" transform="translate(687,172)"/>
<path d="M0 0 C0.33 0 0.66 0 1 0 C1.23 5.52 0.96 10.8 0.11 16.26 C-1.14 24.71 -2.04 33.19 -2.94 41.69 C-3.2 44.13 -3.46 46.57 -3.72 49.01 C-3.89 50.64 -4.07 52.27 -4.24 53.9 C-5.05 61.54 -5.9 69.18 -6.75 76.81 C-6.88 77.96 -7.01 79.1 -7.14 80.28 C-7.42 82.85 -7.71 85.43 -8 88 C-8.66 87.67 -9.32 87.34 -10 87 C-10.03 85.06 -10.05 83.13 -10.06 81.19 C-10.08 79.57 -10.08 79.57 -10.1 77.92 C-10 75 -10 75 -9 72 C-8.8 70.34 -8.64 68.67 -8.5 67 C-8.42 66.03 -8.33 65.06 -8.25 64.06 C-8.13 62.55 -8.13 62.55 -8 61 C-7.84 59 -7.67 57 -7.5 55 C-7.43 54.11 -7.36 53.23 -7.28 52.31 C-7 50 -7 50 -6 47 C-5.77 43.53 -5.61 40.07 -5.48 36.6 C-5.28 32.21 -4.65 28.28 -3.49 24.05 C-2.6 20.34 -2.3 16.55 -1.94 12.75 C-1.78 11.18 -1.63 9.61 -1.46 8.05 C-1.4 7.36 -1.33 6.68 -1.27 5.98 C-0.99 3.93 -0.54 1.99 0 0 Z " fill="#C6617D" transform="translate(308,120)"/>
<path d="M0 0 C0.75 0.24 0.75 0.24 1.52 0.49 C4.91 1.19 8.26 1.18 11.71 1.21 C12.48 1.22 13.25 1.23 14.04 1.24 C16.59 1.27 19.13 1.29 21.67 1.32 C23.44 1.34 25.2 1.36 26.97 1.38 C31.61 1.43 36.25 1.48 40.9 1.53 C45.64 1.58 50.37 1.64 55.11 1.69 C64.41 1.8 73.7 1.9 83 2 C83 2.33 83 2.66 83 3 C74.46 4.22 65.97 4.13 57.37 4.1 C55.77 4.1 54.17 4.09 52.57 4.09 C48.38 4.09 44.19 4.08 40.01 4.07 C35.72 4.06 31.44 4.05 27.15 4.05 C18.77 4.04 10.38 4.02 2 4 C1.34 2.68 0.68 1.36 0 0 Z " fill="#AEBF9C" transform="translate(764,335)"/>
<path d="M0 0 C3 2 3 2 3.49 3.96 C3.55 4.76 3.6 5.55 3.66 6.37 C3.73 7.25 3.8 8.13 3.87 9.03 C3.94 9.97 4 10.91 4.06 11.88 C4.22 13.8 4.37 15.73 4.53 17.65 C4.61 18.58 4.68 19.51 4.76 20.46 C5.05 23.49 5.51 26.45 6.06 29.44 C7.07 34.93 7.45 40.4 7.75 45.97 C7.91 48.86 7.91 48.86 8.52 51.08 C9.13 53.51 9.1 55.75 9.06 58.25 C9.05 59.14 9.04 60.03 9.04 60.95 C9.02 61.63 9.01 62.3 9 63 C8.34 63 7.68 63 7 63 C5.62 60.24 5.58 57.71 5.28 54.64 C5.15 53.36 5.03 52.08 4.89 50.76 C4.76 49.4 4.63 48.04 4.5 46.69 C4.24 44.05 3.98 41.4 3.72 38.76 C3.6 37.59 3.49 36.41 3.37 35.2 C3.05 32.41 2.56 29.74 2 27 C1.81 25.45 1.64 23.9 1.5 22.35 C1.42 21.49 1.33 20.63 1.25 19.74 C1.17 18.86 1.08 17.97 1 17.06 C0.37 10.22 0.37 10.22 -0.62 3.43 C-0.75 2.63 -0.87 1.83 -1 1 C-0.67 0.67 -0.34 0.34 0 0 Z " fill="#D26076" transform="translate(102,92)"/>
<path d="M0 0 C1.36 0 1.36 0 2.74 0.01 C4.13 0 4.13 0 5.54 0 C7.5 0 9.46 0 11.42 0.01 C14.42 0.01 17.42 0.01 20.42 0 C22.32 0 24.22 0 26.11 0.01 C27.01 0 27.91 0 28.84 0 C30.1 0 30.1 0 31.38 0.01 C32.12 0.01 32.85 0.01 33.61 0.01 C35.56 0.14 35.56 0.14 38.56 1.14 C38.56 2.79 38.56 4.44 38.56 6.14 C38.07 5.15 38.07 5.15 37.56 4.14 C23.7 3.81 9.84 3.48 -4.44 3.14 C-4.77 7.43 -5.1 11.72 -5.44 16.14 C-5.77 16.14 -6.1 16.14 -6.44 16.14 C-6.63 13.66 -6.82 11.18 -7 8.7 C-7.06 7.99 -7.11 7.29 -7.17 6.56 C-7.3 4.75 -7.38 2.95 -7.44 1.14 C-5.5 -0.8 -2.58 0.01 0 0 Z " fill="#CA5F77" transform="translate(345.4399108886719,50.861053466796875)"/>
<path d="M0 0 C5.36 -0.05 10.71 -0.09 16.07 -0.11 C17.89 -0.12 19.72 -0.13 21.54 -0.15 C24.16 -0.18 26.78 -0.19 29.39 -0.2 C30.21 -0.21 31.03 -0.22 31.87 -0.23 C35.77 -0.23 37.68 -0.22 41 2 C40.67 4.97 40.34 7.94 40 11 C39.67 11 39.34 11 39 11 C38.5 7.04 38.5 7.04 38 3 C26.78 3.33 15.56 3.66 4 4 C3.67 5.65 3.34 7.3 3 9 C1.94 11.31 1.94 11.31 1 13 C0.67 13 0.34 13 0 13 C0 8.71 0 4.42 0 0 Z " fill="#CA617A" transform="translate(276,51)"/>
<path d="M0 0 C0.66 0.33 1.32 0.66 2 1 C2.27 8.87 1.35 16.51 0.35 24.3 C0.06 26.52 -0.22 28.75 -0.49 30.98 C-0.67 32.39 -0.85 33.8 -1.03 35.22 C-1.19 36.5 -1.35 37.77 -1.52 39.09 C-2 42 -2 42 -3 43 C-4.81 43.09 -6.62 43.12 -8.44 43.11 C-10.18 43.11 -10.18 43.11 -11.96 43.11 C-13.85 43.11 -13.85 43.11 -15.79 43.1 C-17.07 43.1 -18.36 43.09 -19.68 43.09 C-23.11 43.09 -26.53 43.08 -29.96 43.07 C-33.45 43.06 -36.94 43.05 -40.43 43.05 C-47.29 43.04 -54.14 43.02 -61 43 C-61 42.67 -61 42.34 -61 42 C-54.4 41.23 -47.91 40.85 -41.27 40.87 C-39.94 40.87 -39.94 40.87 -38.59 40.86 C-36.75 40.86 -34.9 40.87 -33.06 40.87 C-30.24 40.88 -27.43 40.87 -24.61 40.86 C-22.81 40.86 -21.01 40.87 -19.2 40.87 C-17.95 40.86 -17.95 40.86 -16.67 40.86 C-12.34 40.88 -8.27 41.13 -4 42 C-3.91 40.09 -3.91 40.09 -3.82 38.13 C-3.73 36.46 -3.65 34.79 -3.56 33.12 C-3.52 32.28 -3.48 31.44 -3.44 30.57 C-3.38 29.37 -3.38 29.37 -3.32 28.13 C-3.28 27.39 -3.24 26.65 -3.21 25.88 C-3 24 -3 24 -2 22 C-1.79 19.41 -1.63 16.84 -1.5 14.25 C-1.26 9.42 -0.9 4.76 0 0 Z " fill="#8F5475" transform="translate(287,296)"/>
<path d="M0 0 C0.33 0 0.66 0 1 0 C1.5 11.08 0.13 21.58 -1.61 32.5 C-2.49 38.14 -3.21 43.78 -3.75 49.46 C-3.82 50.14 -3.88 50.82 -3.95 51.52 C-4.16 53.66 -4.36 55.8 -4.56 57.94 C-4.7 59.4 -4.84 60.86 -4.98 62.32 C-5.32 65.88 -5.66 69.44 -6 73 C-8.5 69.25 -8.08 67.8 -7.69 63.38 C-7.57 62.03 -7.46 60.68 -7.35 59.34 C-7.29 58.63 -7.23 57.93 -7.17 57.2 C-7 54.95 -6.88 52.7 -6.77 50.44 C-6.72 49.31 -6.72 49.31 -6.67 48.16 C-6.6 46.71 -6.54 45.26 -6.48 43.81 C-6.33 40.71 -6.02 38.05 -4.99 35.11 C-3.63 30.86 -3.66 26.81 -3.56 22.38 C-3.29 14.52 -2.43 7.51 0 0 Z " fill="#BE6485" transform="translate(298,208)"/>
<path d="M0 0 C14.85 0 29.7 0 45 0 C45.5 1.49 45.5 1.49 46 3 C30.82 3 15.64 3 0 3 C0 2.01 0 1.02 0 0 Z " fill="#C96683" transform="translate(659,296)"/>
<path d="M0 0 C0.33 0 0.66 0 1 0 C1 43.89 1 87.78 1 133 C0.67 133 0.34 133 0 133 C0 89.11 0 45.22 0 0 Z " fill="#417E99" transform="translate(762,104)"/>
<path d="M0 0 C0.33 0 0.66 0 1 0 C1.02 3.95 1.04 7.9 1.05 11.85 C1.06 13.86 1.08 15.87 1.09 17.87 C1.09 19.13 1.09 20.38 1.1 21.68 C1.1 22.84 1.11 24 1.11 25.2 C1 28 1 28 0 30 C-0.2 31.65 -0.34 33.31 -0.46 34.97 C-0.54 35.95 -0.62 36.94 -0.7 37.95 C-0.86 40.03 -1.01 42.11 -1.16 44.19 C-1.24 45.17 -1.32 46.15 -1.4 47.16 C-1.5 48.52 -1.5 48.52 -1.61 49.9 C-1.8 50.94 -1.8 50.94 -2 52 C-2.99 52.5 -2.99 52.5 -4 53 C-5.4 42.2 -4.44 32.18 -3.12 21.44 C-2.94 19.8 -2.75 18.16 -2.56 16.51 C-1.06 3.68 -1.06 3.68 0 0 Z " fill="#CD627D" transform="translate(275,65)"/>
<path d="M0 0 C0.33 0 0.66 0 1 0 C5.24 19.05 4.91 39.66 3 59 C2.67 59 2.34 59 2 59 C0.8 47.53 0.67 36.05 0.45 24.53 C0.4 21.95 0.34 19.37 0.28 16.79 C0.26 15.62 0.26 15.62 0.24 14.43 C0.16 10.9 -0.03 7.5 -0.58 4.01 C-0.72 3.02 -0.86 2.02 -1 1 C-0.67 0.67 -0.34 0.34 0 0 Z " fill="#B2648F" transform="translate(549,94)"/>
<path d="M0 0 C24.75 0 49.5 0 75 0 C75.33 12.87 75.66 25.74 76 39 C74.35 39.33 72.7 39.66 71 40 C71.99 39.01 71.99 39.01 73 38 C73.25 35.21 73.37 32.51 73.41 29.71 C73.43 28.99 73.45 28.26 73.47 27.51 C73.53 24.8 73.58 22.09 73.62 19.38 C73.75 13.31 73.87 7.25 74 1 C49.58 1 25.16 1 0 1 C0 0.67 0 0.34 0 0 Z " fill="#DAD898" transform="translate(1139,298)"/>
<path d="M0 0 C1.26 2.52 0.83 3.26 0.12 5.94 C-1.64 13.41 -2.06 20.77 -1.94 28.44 C-1.87 34.8 -2.74 40.78 -4 47 C-4.33 47 -4.66 47 -5 47 C-5.14 45.89 -5.29 44.77 -5.44 43.62 C-5.78 40.18 -5.78 40.18 -7 38 C-6.89 35.66 -6.7 33.32 -6.48 30.98 C-6.41 30.28 -6.35 29.59 -6.28 28.87 C-6.14 27.4 -5.99 25.93 -5.85 24.45 C-5.63 22.21 -5.41 19.96 -5.2 17.72 C-4.06 5.78 -4.06 5.78 -3 1 C-2.01 0.67 -1.02 0.34 0 0 Z " fill="#D55D6F" transform="translate(173,223)"/>
<path d="M0 0 C0.33 0 0.66 0 1 0 C1.06 3.19 1.09 6.37 1.12 9.56 C1.14 10.46 1.16 11.35 1.18 12.28 C1.21 17.62 0.54 21.85 -1 27 C-1.4 30.85 -1.46 34.72 -1.57 38.59 C-1.61 39.74 -1.61 39.74 -1.66 40.92 C-1.67 41.61 -1.69 42.3 -1.71 43 C-2.05 45.32 -2.86 46.97 -4 49 C-5.35 39.78 -4.57 31 -3.56 21.81 C-3.41 20.37 -3.26 18.93 -3.12 17.48 C-2.75 13.99 -2.38 10.49 -2 7 C-1.34 7 -0.68 7 0 7 C0 4.69 0 2.38 0 0 Z " fill="#D45E71" transform="translate(267,151)"/>
<path d="M0 0 C0.33 0 0.66 0 1 0 C1.02 5.39 1.04 10.79 1.05 16.18 C1.06 18.02 1.07 19.85 1.08 21.69 C1.09 24.32 1.09 26.96 1.1 29.59 C1.1 30.42 1.11 31.24 1.11 32.09 C1.11 34.06 1.06 36.03 1 38 C0 39 0 39 -2.96 39.11 C-4.25 39.11 -5.55 39.1 -6.88 39.1 C-7.91 39.1 -7.91 39.1 -8.96 39.09 C-11.16 39.09 -13.36 39.08 -15.56 39.06 C-17.05 39.06 -18.54 39.05 -20.03 39.05 C-23.69 39.04 -27.34 39.02 -31 39 C-30.67 38.34 -30.34 37.68 -30 37 C-20.76 36.67 -11.52 36.34 -2 36 C-1.24 31.45 -0.82 27.42 -0.68 22.85 C-0.66 22.19 -0.64 21.54 -0.62 20.86 C-0.56 18.78 -0.5 16.7 -0.44 14.62 C-0.39 13.21 -0.35 11.79 -0.31 10.37 C-0.2 6.91 -0.1 3.46 0 0 Z " fill="#9CB59F" transform="translate(736,300)"/>
<path d="M0 0 C2 2 2 2 2.23 4.93 C2.22 6.09 2.2 7.25 2.19 8.44 C2.18 10.17 2.18 10.17 2.17 11.93 C2 15 2 15 1 18 C0.82 20.39 0.68 22.79 0.56 25.19 C0.26 30.68 -0.39 35.73 -2 41 C-2.33 41 -2.66 41 -3 41 C-4.23 32.28 -3.66 24.15 -2.62 15.44 C-2.49 14.17 -2.35 12.9 -2.2 11.59 C-1.15 2.3 -1.15 2.3 0 0 Z " fill="#D25E72" transform="translate(183,96)"/>
<path d="M0 0 C0.33 0.66 0.66 1.32 1 2 C0.2 2.12 -0.61 2.25 -1.44 2.38 C-2.71 2.68 -2.71 2.68 -4 3 C-4.33 3.66 -4.66 4.32 -5 5 C-4.34 5 -3.68 5 -3 5 C0.83 16.86 0.31 28.68 0 41 C-0.33 41 -0.66 41 -1 41 C-1 38.36 -1 35.72 -1 33 C-1.66 33 -2.32 33 -3 33 C-3.53 28.61 -4.05 24.21 -4.56 19.81 C-4.71 18.57 -4.87 17.32 -5.02 16.04 C-5.16 14.84 -5.3 13.63 -5.44 12.39 C-5.57 11.29 -5.7 10.18 -5.84 9.05 C-5.99 6.13 -5.72 3.82 -5 1 C-3.35 0.67 -1.7 0.34 0 0 Z " fill="#D85E6F" transform="translate(103,50)"/>
<path d="M0 0 C0.33 0 0.66 0 1 0 C1.06 0.6 1.11 1.2 1.17 1.82 C1.42 4.57 1.68 7.31 1.94 10.06 C2.02 11.01 2.11 11.95 2.2 12.92 C2.68 17.97 3.26 22.98 4 28 C4.88 36.01 5.13 43.94 5 52 C2.38 49.38 2.54 47.85 2.15 44.2 C1.95 42.41 1.95 42.41 1.76 40.57 C1.63 39.29 1.5 38.01 1.38 36.69 C1.24 35.39 1.11 34.09 0.98 32.75 C-0.07 21.8 -0.32 10.99 0 0 Z " fill="#C2688A" transform="translate(244,184)"/>
<path d="M0 0 C0.33 0 0.66 0 1 0 C1 12.87 1 25.74 1 39 C-1.9 40.45 -4.31 40.01 -7.54 39.88 C-9.49 39.81 -9.49 39.81 -11.48 39.73 C-12.86 39.68 -14.24 39.62 -15.62 39.56 C-17.01 39.51 -18.4 39.46 -19.79 39.4 C-23.19 39.27 -26.6 39.14 -30 39 C-30 38.67 -30 38.34 -30 38 C-20.76 37.67 -11.52 37.34 -2 37 C-1.34 24.79 -0.68 12.58 0 0 Z " fill="#CBCF99" transform="translate(736,53)"/>
<path d="M0 0 C0.33 0 0.66 0 1 0 C1.06 3.69 1.09 7.37 1.12 11.06 C1.15 12.62 1.15 12.62 1.18 14.21 C1.21 19.94 0.81 24.57 -1 30 C-1.26 31.81 -1.48 33.62 -1.62 35.44 C-1.7 36.3 -1.77 37.17 -1.85 38.06 C-1.9 38.7 -1.95 39.34 -2 40 C-2.66 40 -3.32 40 -4 40 C-4 42.97 -4 45.94 -4 49 C-4.33 49 -4.66 49 -5 49 C-5.25 40.9 -4.46 33.04 -3.5 25 C-3.22 22.58 -2.94 20.17 -2.66 17.75 C-2.53 16.69 -2.4 15.64 -2.28 14.55 C-1.96 12.1 -1.96 12.1 -2 10 C-1.34 10 -0.68 10 0 10 C0 6.7 0 3.4 0 0 Z " fill="#CF6077" transform="translate(261,206)"/>
<path d="M0 0 C0.99 0.33 1.98 0.66 3 1 C5.78 1.1 8.54 1.14 11.32 1.13 C12.13 1.13 12.94 1.13 13.78 1.14 C15.49 1.14 17.21 1.13 18.92 1.13 C21.56 1.13 24.19 1.13 26.82 1.14 C28.48 1.14 30.15 1.13 31.82 1.13 C32.61 1.13 33.4 1.14 34.21 1.14 C38.23 1.21 38.23 1.21 42 0 C42.49 1.49 42.49 1.49 43 3 C42 4 42 4 38.12 4.11 C36.39 4.11 34.66 4.11 32.93 4.1 C32.02 4.1 31.12 4.09 30.18 4.09 C27.27 4.09 24.35 4.08 21.44 4.06 C19.47 4.06 17.5 4.05 15.53 4.05 C10.68 4.04 5.84 4.02 1 4 C0.67 2.68 0.34 1.36 0 0 Z " fill="#AFC09C" transform="translate(1020,145)"/>
<path d="M0 0 C0.66 0 1.32 0 2 0 C4.57 11.94 4.2 23.86 4 36 C3.34 36 2.68 36 2 36 C1.92 34.99 1.92 34.99 1.83 33.97 C1.58 30.92 1.32 27.86 1.06 24.81 C0.98 23.76 0.89 22.7 0.8 21.62 C0.71 20.59 0.62 19.57 0.54 18.52 C0.46 17.58 0.38 16.64 0.3 15.68 C0.04 12.98 0.04 12.98 -0.54 10.29 C-1.26 6.71 -0.55 3.6 0 0 Z " fill="#C9617D" transform="translate(210,197)"/>
<path d="M0 0 C13.86 0.5 13.86 0.5 28 1 C28 1.66 28 2.32 28 3 C28.66 3.33 29.32 3.66 30 4 C20.43 4 10.86 4 1 4 C0.67 2.68 0.34 1.36 0 0 Z " fill="#BB6A94" transform="translate(659,170)"/>
<path d="M0 0 C0.33 0 0.66 0 1 0 C1.55 5.19 2.1 10.38 2.65 15.58 C2.84 17.34 3.03 19.1 3.22 20.86 C4.25 30.57 5.26 40.27 6 50 C5.01 49.67 4.02 49.34 3 49 C2.98 48.43 2.96 47.86 2.94 47.28 C2.84 44.66 2.73 42.05 2.62 39.44 C2.59 38.54 2.56 37.65 2.53 36.72 C2.36 32.77 2.11 29.37 0.97 25.56 C-0.4 20.54 -0.21 15.74 -0.12 10.56 C-0.12 9.54 -0.11 8.53 -0.1 7.48 C-0.07 4.99 -0.04 2.49 0 0 Z " fill="#C06587" transform="translate(147,103)"/>
<path d="M0 0 C0.99 0.5 0.99 0.5 2 1 C2.38 3 2.38 3 2.56 5.44 C2.81 8.85 2.81 8.85 4 12 C4.08 13.67 4.11 15.34 4.1 17.01 C4.09 17.99 4.09 18.98 4.09 20 C4.08 21.03 4.07 22.06 4.06 23.12 C4.06 24.17 4.05 25.21 4.05 26.28 C4.04 28.85 4.02 31.43 4 34 C1.07 31.07 1.27 27.71 0.88 23.75 C0.79 22.95 0.71 22.15 0.62 21.32 C-0.09 14.2 -0.21 7.16 0 0 Z " fill="#C3607C" transform="translate(110,157)"/>
<path d="M0 0 C1.48 0.99 1.48 0.99 3 2 C3.55 4.92 3.93 7.67 4.19 10.62 C4.27 11.41 4.35 12.19 4.44 13 C4.93 18.02 5.08 22.96 5 28 C4.01 27.67 3.02 27.34 2 27 C1.94 26.45 1.89 25.9 1.83 25.34 C1.58 22.83 1.32 20.32 1.06 17.81 C0.98 16.95 0.89 16.08 0.8 15.19 C0.44 11.77 0.09 8.44 -0.63 5.07 C-1 3 -1 3 0 0 Z " fill="#D45D6F" transform="translate(119,242)"/>
<path d="M0 0 C0.33 0 0.66 0 1 0 C1.07 8.29 1.12 16.59 1.16 24.88 C1.17 28.73 1.19 32.58 1.23 36.43 C1.26 40.15 1.28 43.86 1.28 47.58 C1.29 48.99 1.3 50.41 1.32 51.83 C1.34 53.81 1.34 55.8 1.34 57.78 C1.35 58.91 1.35 60.05 1.36 61.21 C1 64 1 64 -0.52 65.89 C-1.01 66.26 -1.5 66.62 -2 67 C-2 64.69 -2 62.38 -2 60 C-1.34 60 -0.68 60 0 60 C0 40.2 0 20.4 0 0 Z " fill="#DCD894" transform="translate(1020,221)"/>
<path d="M0 0 C0.33 0 0.66 0 1 0 C1.22 8.87 0.56 17.45 -0.5 26.25 C-0.64 27.48 -0.79 28.72 -0.93 29.99 C-1.28 32.99 -1.64 36 -2 39 C-2.66 38.67 -3.32 38.34 -4 38 C-4.03 36.06 -4.05 34.13 -4.06 32.19 C-4.07 31.11 -4.09 30.03 -4.1 28.92 C-4 26 -4 26 -3 23 C-2.8 21.31 -2.64 19.62 -2.5 17.93 C-2.42 16.95 -2.33 15.97 -2.25 14.96 C-2.08 12.9 -1.92 10.83 -1.75 8.76 C-1.67 7.79 -1.58 6.81 -1.5 5.8 C-1.43 4.91 -1.36 4.01 -1.28 3.09 C-1 1 -1 1 0 0 Z " fill="#C85F77" transform="translate(302,169)"/>
<path d="M0 0 C0.33 0 0.66 0 1 0 C2.93 21.66 2.93 21.66 0 32 C-0.4 34.33 -0.71 36.65 -1 39 C-1.33 39 -1.66 39 -2 39 C-2.29 25.86 -1.44 13.06 0 0 Z " fill="#D16177" transform="translate(186,56)"/>
<path d="M0 0 C0.33 0 0.66 0 1 0 C1.12 1.2 1.23 2.39 1.35 3.62 C1.78 8.06 2.22 12.49 2.65 16.93 C2.84 18.84 3.03 20.76 3.22 22.68 C3.48 25.44 3.75 28.2 4.03 30.96 C4.11 31.82 4.19 32.68 4.28 33.56 C4.36 34.36 4.44 35.16 4.52 35.99 C4.59 36.69 4.66 37.4 4.73 38.12 C4.98 40.22 4.98 40.22 6 43 C4.51 43.5 4.51 43.5 3 44 C1.41 37.77 0.62 31.8 0.38 25.38 C0.34 24.51 0.3 23.65 0.26 22.77 C-0.05 15.18 -0.1 7.6 0 0 Z " fill="#C0688B" transform="translate(160,223)"/>
<path d="M0 0 C24.42 0 48.84 0 74 0 C74 0.33 74 0.66 74 1 C49.58 1 25.16 1 0 1 C0 0.67 0 0.34 0 0 Z " fill="#000002" transform="translate(1140,93)"/>
<path d="M0 0 C9.54 -0.64 17.26 2.46 26 6 C26 6.66 26 7.32 26 8 C26.84 8.09 26.84 8.09 27.69 8.19 C30.95 9.33 32.69 11.49 35 14 C31.45 14 30.95 13.39 28.31 11.19 C19.93 4.76 10.14 3.74 0 2 C0 1.34 0 0.68 0 0 Z " fill="#D4CF87" transform="translate(848,53)"/>
<path d="M0 0 C0.33 0 0.66 0 1 0 C0.86 1.58 0.71 3.17 0.56 4.75 C0.48 5.63 0.4 6.51 0.32 7.42 C0 10 0 10 -0.51 11.92 C-1.43 15.84 -1.41 19.9 -1.62 23.91 C-1.98 26.84 -2.62 28.45 -4 31 C-4.03 27.31 -4.05 23.63 -4.06 19.94 C-4.07 18.9 -4.08 17.86 -4.09 16.79 C-4.1 11.41 -3.95 6.3 -3 1 C-2.34 1.66 -1.68 2.32 -1 3 C-0.67 2.01 -0.34 1.02 0 0 Z " fill="#D45E71" transform="translate(176,192)"/>
<path d="M0 0 C0.33 0 0.66 0 1 0 C1 9.9 1 19.8 1 30 C0.01 30.33 -0.98 30.66 -2 31 C-2.26 6.77 -2.26 6.77 0 0 Z " fill="#E5D984" transform="translate(929,99)"/>
<path d="M0 0 C0.33 0 0.66 0 1 0 C1.46 10.96 0.8 20.09 -6 29 C-6.66 28.34 -7.32 27.68 -8 27 C-7.72 26.37 -7.45 25.74 -7.16 25.09 C-4.85 19.64 -3.44 14.91 -3 9 C-2.67 9.66 -2.34 10.32 -2 11 C-1.34 11 -0.68 11 0 11 C0 7.37 0 3.74 0 0 Z " fill="#D35A68" transform="translate(508,147)"/>
<path d="M0 0 C0.33 0 0.66 0 1 0 C1.2 6.41 0.81 12.58 0.06 18.94 C-0.02 19.68 -0.11 20.43 -0.2 21.2 C-0.58 24.27 -1.02 27.06 -2 30 C-3.65 30 -5.3 30 -7 30 C-6.53 29.33 -6.05 28.67 -5.57 27.98 C-3.7 24.43 -3.29 21.18 -2.94 17.25 C-2.79 15.83 -2.63 14.41 -2.47 12.98 C-2.4 12.3 -2.32 11.62 -2.24 10.92 C-1.77 7.21 -0.91 3.62 0 0 Z " fill="#C36280" transform="translate(194,307)"/>
<path d="M0 0 C0.33 0 0.66 0 1 0 C1.54 11.92 -0.11 23.27 -2 35 C-2.33 35 -2.66 35 -3 35 C-3.62 10.02 -3.62 10.02 0 0 Z " fill="#BC658A" transform="translate(298,208)"/>
<path d="M0 0 C0.33 1.32 0.66 2.64 1 4 C-9.23 4 -19.46 4 -30 4 C-29.67 3.34 -29.34 2.68 -29 2 C-28.16 1.97 -27.31 1.95 -26.45 1.92 C-23.33 1.83 -20.21 1.73 -17.09 1.63 C-15.74 1.58 -14.39 1.54 -13.04 1.5 C-11.1 1.45 -9.16 1.38 -7.22 1.32 C-6.05 1.28 -4.89 1.24 -3.68 1.21 C-1.08 1.3 -1.08 1.3 0 0 Z " fill="#DAD898" transform="translate(719,210)"/>
<path d="M0 0 C0.88 0.01 1.77 0.02 2.68 0.03 C3.67 0.04 3.67 0.04 4.69 0.06 C4.36 0.72 4.03 1.38 3.69 2.06 C1.32 2.55 1.32 2.55 -1.75 2.94 C-7.03 3.71 -11.43 5.11 -16.25 7.36 C-18.31 8.06 -18.31 8.06 -21.31 7.06 C-19.93 4.3 -18.41 4.11 -15.56 3 C-14.27 2.49 -14.27 2.49 -12.95 1.96 C-8.56 0.47 -4.63 -0.06 0 0 Z " fill="#E7DA7E" transform="translate(982.3125,48.9375)"/>
<path d="M0 0 C0.66 0 1.32 0 2 0 C2.12 2.88 2.12 2.88 2 6 C1.34 6.66 0.68 7.32 0 8 C-0.46 10.62 -0.46 10.62 -0.63 13.66 C-0.72 14.79 -0.8 15.91 -0.89 17.06 C-0.97 18.24 -1.04 19.41 -1.12 20.62 C-1.21 21.81 -1.3 22.99 -1.39 24.21 C-1.6 27.14 -1.8 30.07 -2 33 C-2.33 33 -2.66 33 -3 33 C-3.09 29.19 -3.14 25.38 -3.19 21.56 C-3.21 20.49 -3.24 19.42 -3.26 18.32 C-3.33 11.63 -2.63 6.17 0 0 Z " fill="#AA597A" transform="translate(207,190)"/>
<path d="M0 0 C3.96 -0.15 7.92 -0.23 11.88 -0.31 C13.54 -0.38 13.54 -0.38 15.23 -0.44 C22.81 -0.55 28.77 0.45 35 5 C36.77 7.17 36.77 7.17 38 9 C37.67 9.66 37.34 10.32 37 11 C36.31 10.39 36.31 10.39 35.61 9.76 C34.69 8.95 34.69 8.95 33.75 8.12 C33.15 7.59 32.54 7.06 31.92 6.51 C25.4 1.39 17.56 1.78 9.62 1.44 C8.7 1.39 7.77 1.35 6.82 1.31 C4.54 1.2 2.27 1.1 0 1 C0 0.67 0 0.34 0 0 Z " fill="#AF658E" transform="translate(464,221)"/>
<path d="M0 0 C0.66 0.33 1.32 0.66 2 1 C-3.74 4.95 -7.42 6.15 -14.29 6.1 C-15.35 6.1 -15.35 6.1 -16.43 6.09 C-18.68 6.09 -20.94 6.08 -23.19 6.06 C-24.72 6.06 -26.24 6.05 -27.77 6.05 C-31.51 6.04 -35.26 6.02 -39 6 C-39 5.67 -39 5.34 -39 5 C-30.09 5 -21.18 5 -12 5 C-12 4.34 -12 3.68 -12 3 C-11.39 2.95 -10.77 2.9 -10.14 2.85 C-9.33 2.78 -8.52 2.7 -7.69 2.62 C-6.89 2.56 -6.09 2.49 -5.26 2.41 C-2.73 2.1 -2.73 2.1 0 0 Z " fill="#DDD891" transform="translate(850,293)"/>
<path d="M0 0 C0.66 0 1.32 0 2 0 C2.9 3.07 3.12 5.79 3.1 8.98 C3.09 9.92 3.09 10.85 3.09 11.82 C3.08 12.78 3.07 13.75 3.06 14.75 C3.06 15.73 3.05 16.72 3.05 17.73 C3.04 20.15 3.02 22.58 3 25 C2.67 25 2.34 25 2 25 C-0.39 16.64 -0.19 8.61 0 0 Z " fill="#C9627E" transform="translate(114,193)"/>
<path d="M0 0 C0.5 0.99 0.5 0.99 1 2 C-6.27 6.62 -12.55 6.48 -21 6.25 C-22.25 6.23 -23.5 6.21 -24.79 6.2 C-27.86 6.15 -30.93 6.08 -34 6 C-34 5.67 -34 5.34 -34 5 C-27.4 5 -20.8 5 -14 5 C-14 4.34 -14 3.68 -14 3 C-13.24 2.87 -12.48 2.73 -11.7 2.6 C-10.21 2.33 -10.21 2.33 -8.69 2.06 C-7.7 1.89 -6.72 1.71 -5.7 1.54 C-2.92 1.04 -2.92 1.04 0 0 Z " fill="#BD688E" transform="translate(498,176)"/>
<path d="M0 0 C0 0.66 0 1.32 0 2 C-8.25 2 -16.5 2 -25 2 C-25 1.34 -25 0.68 -25 0 C-16.5 -0.89 -8.49 -0.99 0 0 Z " fill="#CB6076" transform="translate(488,91)"/>
<path d="M0 0 C0.66 0 1.32 0 2 0 C2.13 7.4 1.8 14.64 1 22 C0.34 22 -0.32 22 -1 22 C-1.03 18.52 -1.05 15.04 -1.06 11.56 C-1.07 10.57 -1.08 9.58 -1.09 8.55 C-1.09 7.61 -1.09 6.66 -1.1 5.69 C-1.1 4.82 -1.11 3.94 -1.11 3.04 C-1 1 -1 1 0 0 Z " fill="#CB637F" transform="translate(507,136)"/>
<path d="M0 0 C17.82 0 35.64 0 54 0 C54 0.33 54 0.66 54 1 C36.18 1 18.36 1 0 1 C0 0.67 0 0.34 0 0 Z " fill="#58487D" transform="translate(618,49)"/>
<path d="M0 0 C1.88 5.8 -0.88 10.66 -3.4 15.93 C-7.72 24.21 -7.72 24.21 -12 27 C-12 26.01 -12 25.02 -12 24 C-11.34 23.67 -10.68 23.34 -10 23 C-8.97 21.02 -7.97 19.02 -7 17 C-6.34 16.01 -5.68 15.02 -5 14 C-4.46 12.56 -3.96 11.1 -3.5 9.62 C-2.45 6.36 -1.33 3.17 0 0 Z " fill="#B86081" transform="translate(549,160)"/>
<path d="M0 0 C0.66 0 1.32 0 2 0 C3.24 3.71 3.36 7.31 3.56 11.19 C3.61 11.94 3.65 12.69 3.69 13.46 C3.8 15.31 3.9 17.15 4 19 C3.34 19 2.68 19 2 19 C-0.11 15.51 -0.41 12.41 -0.69 8.38 C-0.77 7.23 -0.86 6.08 -0.95 4.9 C-1 2 -1 2 0 0 Z " fill="#C55E7A" transform="translate(128,319)"/>
<path d="M0 0 C3.19 6.39 0.02 18.41 -2 25 C-2.33 25 -2.66 25 -3 25 C-4.33 13.48 -4.33 13.48 -3 8 C-2.34 8 -1.68 8 -1 8 C-1.02 6.87 -1.04 5.73 -1.06 4.56 C-1 1 -1 1 0 0 Z " fill="#C6607A" transform="translate(183,112)"/>
<path d="M0 0 C1.48 0.99 1.48 0.99 3 2 C3.43 4.34 3.43 4.34 3.51 7.23 C3.55 8.26 3.58 9.29 3.62 10.35 C3.64 11.43 3.66 12.51 3.69 13.62 C3.72 14.71 3.76 15.8 3.79 16.92 C3.87 19.61 3.94 22.31 4 25 C3.67 25 3.34 25 3 25 C1.62 19.37 0.6 13.74 -0.19 8 C-0.37 6.7 -0.55 5.4 -0.73 4.06 C-0.86 2.55 -0.86 2.55 -1 1 C-0.67 0.67 -0.34 0.34 0 0 Z " fill="#C35F79" transform="translate(102,92)"/>
<path d="M0 0 C0.33 0 0.66 0 1 0 C3.21 8.55 4 17.17 4 26 C0.82 23.25 0.46 21.01 0.12 16.83 C-0.12 11.22 -0.07 5.61 0 0 Z " fill="#C56B8E" transform="translate(222,312)"/>
<path d="M0 0 C2.68 1.34 2.75 2.52 3.69 5.31 C3.96 6.09 4.23 6.87 4.51 7.68 C5.06 10.29 4.73 11.47 4 14 C3.78 16.25 3.6 18.5 3.44 20.75 C3.35 21.92 3.27 23.09 3.18 24.3 C3.12 25.19 3.06 26.08 3 27 C2.67 27 2.34 27 2 27 C1.93 25.28 1.93 25.28 1.85 23.53 C1.78 22 1.7 20.47 1.62 18.94 C1.59 18.19 1.56 17.43 1.53 16.66 C1.34 12.98 1 9.66 -0.1 6.13 C-1 3 -1 3 0 0 Z " fill="#D75A68" transform="translate(504,234)"/>
<path d="M0 0 C0.66 0 1.32 0 2 0 C3.12 7.37 3.26 14.62 2 22 C1.34 22.33 0.68 22.66 0 23 C0 15.41 0 7.82 0 0 Z " fill="#D46075" transform="translate(506,114)"/>
<path d="M0 0 C0.33 0 0.66 0 1 0 C1.99 8.91 2.98 17.82 4 27 C3.34 27 2.68 27 2 27 C-0.41 21.37 -0.23 16.13 -0.12 10.12 C-0.12 9.15 -0.11 8.18 -0.1 7.17 C-0.07 4.78 -0.04 2.39 0 0 Z " fill="#B7668E" transform="translate(241,156)"/>
<path d="M0 0 C0.99 0.33 1.98 0.66 3 1 C4.17 9.67 4.1 18.27 4 27 C3.67 27 3.34 27 3 27 C2.01 18.09 1.02 9.18 0 0 Z " fill="#CD6077" transform="translate(156,205)"/>
<path d="M0 0 C1.99 3.67 2.44 6.85 3 11 C3.66 13.33 4.33 15.67 5 18 C5 18.99 5 19.98 5 21 C1.06 18.37 0.74 16.18 -0.5 11.75 C-1.25 7.59 -0.74 4.15 0 0 Z " fill="#B16185" transform="translate(508,318)"/>
<path d="M0 0 C0.66 0 1.32 0 2 0 C2 6.27 2 12.54 2 19 C1.01 19.33 0.02 19.66 -1 20 C-1.03 17.79 -1.05 15.58 -1.06 13.38 C-1.07 12.15 -1.09 10.92 -1.1 9.65 C-1.01 6.32 -0.64 3.26 0 0 Z " fill="#CA6078" transform="translate(340,318)"/>
<path d="M0 0 C0.66 0 1.32 0 2 0 C5.48 7.86 5.14 16.53 5 25 C4.67 25 4.34 25 4 25 C4 22.36 4 19.72 4 17 C3.34 17 2.68 17 2 17 C1.34 11.39 0.68 5.78 0 0 Z " fill="#B95C7B" transform="translate(98,66)"/>
<path d="M0 0 C0.33 0 0.66 0 1 0 C1 7.26 1 14.52 1 22 C0.34 22.33 -0.32 22.66 -1 23 C-3.31 6.62 -3.31 6.62 0 0 Z " fill="#B05F86" transform="translate(275,65)"/>
<path d="M0 0 C4.95 0 9.9 0 15 0 C10.68 3.24 9.85 3.35 4.75 3.19 C3.13 3.15 3.13 3.15 1.48 3.11 C0.66 3.07 -0.16 3.04 -1 3 C-0.67 2.01 -0.34 1.02 0 0 Z " fill="#DED890" transform="translate(993,299)"/>
<path d="M0 0 C0.33 0 0.66 0 1 0 C1 13.2 1 26.4 1 40 C0.67 40 0.34 40 0 40 C0 26.8 0 13.6 0 0 Z " fill="#000003" transform="translate(721,174)"/>
<path d="M0 0 C0.99 0 1.98 0 3 0 C5.13 7.74 5.2 15 5 23 C4.67 23 4.34 23 4 23 C4 19.04 4 15.08 4 11 C3.34 11 2.68 11 2 11 C1.8 8.98 1.61 6.96 1.41 4.95 C1.14 2.77 1.14 2.77 -1 1 C-0.67 0.67 -0.34 0.34 0 0 Z " fill="#BE6B92" transform="translate(139,52)"/>
<path d="M0 0 C0.33 0 0.66 0 1 0 C1.33 2.31 1.66 4.62 2 7 C2.33 7 2.66 7 3 7 C3 9.31 3 11.62 3 14 C2.01 14.5 2.01 14.5 1 15 C0.34 17.53 0.34 17.53 0 20 C-0.33 20 -0.66 20 -1 20 C-1.13 13.26 -0.8 6.7 0 0 Z " fill="#E45A63" transform="translate(270,110)"/>
<path d="M0 0 C0.33 0.99 0.66 1.98 1 3 C1.66 3 2.32 3 3 3 C3.7 5.46 4.38 7.91 5.06 10.38 C5.26 11.07 5.46 11.77 5.67 12.49 C7.11 17.77 7.11 17.77 6 20 C2.58 13.24 0.37 7.6 0 0 Z " fill="#E9DB7B" transform="translate(930,291)"/>
<path d="M0 0 C1.27 2.54 0.82 3.36 0.12 6.06 C-0.99 10.7 -1.55 15.25 -2 20 C-2.33 20 -2.66 20 -3 20 C-3 13.73 -3 7.46 -3 1 C-2.01 0.67 -1.02 0.34 0 0 Z " fill="#C2678C" transform="translate(173,223)"/>
<path d="M0 0 C4.68 -0.28 7.68 0.45 11.88 2.5 C13.33 3.2 13.33 3.2 14.8 3.91 C15.53 4.27 16.25 4.63 17 5 C17 5.33 17 5.66 17 6 C11.27 6.59 6.94 4.71 2 2 C1.34 1.34 0.68 0.68 0 0 Z " fill="#C25D78" transform="translate(507,54)"/>
<path d="M0 0 C0.66 0.66 1.32 1.32 2 2 C-3.94 2 -9.88 2 -16 2 C-16 1.34 -16 0.68 -16 0 C-10.64 -1.27 -5.38 -1.11 0 0 Z " fill="#B9668C" transform="translate(502,52)"/>
<path d="M0 0 C1.79 -0.05 3.58 -0.09 5.38 -0.12 C6.37 -0.15 7.37 -0.17 8.4 -0.2 C11 0 11 0 13 2 C10.01 2.87 7.36 3.11 4.25 3.06 C3.45 3.05 2.65 3.04 1.83 3.04 C1.22 3.02 0.62 3.01 0 3 C0 2.01 0 1.02 0 0 Z " fill="#C76380" transform="translate(604,51)"/>
<path d="M0 0 C0.99 0.33 1.98 0.66 3 1 C2.34 1.66 1.68 2.32 1 3 C1.99 3.33 2.98 3.66 4 4 C4 4.66 4 5.32 4 6 C5.32 6.33 6.64 6.66 8 7 C7.67 7.99 7.34 8.98 7 10 C4.36 8.68 1.72 7.36 -1 6 C-1.04 4.33 -1.04 2.67 -1 1 C-0.67 0.67 -0.34 0.34 0 0 Z " fill="#B95B74" transform="translate(524,195)"/>
<path d="M0 0 C2.69 5.37 -0.22 13.55 -2 19 C-2.33 19 -2.66 19 -3 19 C-3 14.71 -3 10.42 -3 6 C-2.34 6 -1.68 6 -1 6 C-1.03 4.79 -1.03 4.79 -1.06 3.56 C-1 1 -1 1 0 0 Z " fill="#CE6988" transform="translate(271,124)"/>
<path d="M0 0 C0.66 0 1.32 0 2 0 C4.84 5.67 4.18 12.95 3 19 C2.67 19 2.34 19 2 19 C1.66 16.77 1.33 14.54 1 12.31 C0.81 11.07 0.63 9.83 0.44 8.55 C0.08 5.64 -0.09 2.92 0 0 Z " fill="#C96078" transform="translate(232,82)"/>
<path d="M0 0 C0.33 0 0.66 0 1 0 C1 10.56 1 21.12 1 32 C0.67 32 0.34 32 0 32 C0 21.44 0 10.88 0 0 Z " fill="#57456C" transform="translate(505,278)"/>
<path d="M0 0 C0.66 0 1.32 0 2 0 C3.38 2.76 3.1 5.05 3.06 8.12 C3.05 9.22 3.04 10.32 3.04 11.45 C3.02 12.29 3.01 13.13 3 14 C2.34 13.67 1.68 13.34 1 13 C1 10.03 1 7.06 1 4 C0.34 4 -0.32 4 -1 4 C-0.67 2.68 -0.34 1.36 0 0 Z " fill="#C9617A" transform="translate(216,256)"/>
<path d="M0 0 C0.33 0 0.66 0 1 0 C1.33 2.31 1.66 4.62 2 7 C2.33 7 2.66 7 3 7 C3.12 12.75 3.12 12.75 2 15 C1.34 15 0.68 15 0 15 C-1.21 9.77 -0.76 5.23 0 0 Z " fill="#DC5B67" transform="translate(273,80)"/>
<path d="M0 0 C0.33 0 0.66 0 1 0 C2.79 6.82 3.24 12.97 3 20 C2.67 20 2.34 20 2 20 C-0.08 13.24 -0.21 7.04 0 0 Z " fill="#C16587" transform="translate(117,221)"/>
<path d="M0 0 C3.33 2.22 3.77 3.2 5.19 6.81 C5.53 7.66 5.88 8.52 6.23 9.39 C7.02 12.07 7.14 14.23 7 17 C2.54 12.54 1.36 5.97 0 0 Z " fill="#C26587" transform="translate(542,215)"/>
<path d="M0 0 C0.99 0.33 1.98 0.66 3 1 C3.21 6.19 2.59 10.13 1 15 C0.67 15 0.34 15 0 15 C0 10.05 0 5.1 0 0 Z " fill="#CC637F" transform="translate(174,184)"/>
<path d="M0 0 C0.33 0 0.66 0 1 0 C1.05 2.92 1.09 5.83 1.12 8.75 C1.15 9.99 1.15 9.99 1.18 11.25 C1.18 12.05 1.19 12.85 1.2 13.67 C1.21 14.41 1.22 15.14 1.23 15.89 C1 18 1 18 -1 22 C-1.33 18.37 -1.66 14.74 -2 11 C-1.34 11 -0.68 11 0 11 C0 7.37 0 3.74 0 0 Z " fill="#C06587" transform="translate(264,178)"/>
<path d="M0 0 C0.33 0 0.66 0 1 0 C1.32 7.86 0.36 15.27 -1 23 C-1.33 23 -1.66 23 -2 23 C-2.2 15 -2.13 7.74 0 0 Z " fill="#B36793" transform="translate(308,120)"/>
<path d="M0 0 C10.23 0 20.46 0 31 0 C31 0.33 31 0.66 31 1 C20.77 1 10.54 1 0 1 C0 0.67 0 0.34 0 0 Z " fill="#000002" transform="translate(704,93)"/>
<path d="M0 0 C0.33 0 0.66 0 1 0 C1.34 1.87 1.67 3.75 2 5.62 C2.19 6.67 2.37 7.71 2.56 8.79 C2.99 11.91 3.08 14.86 3 18 C0.64 15.64 0.51 14.22 0 11 C-0.33 11 -0.66 11 -1 11 C-0.67 7.37 -0.34 3.74 0 0 Z " fill="#D75A67" transform="translate(222,303)"/>
<path d="M0 0 C1.48 0.99 1.48 0.99 3 2 C3.29 5.04 3.29 5.04 3.19 8.62 C3.16 9.81 3.13 11 3.11 12.23 C3.07 13.14 3.04 14.06 3 15 C0.62 12.62 0.45 11.32 -0.19 8.06 C-0.37 7.19 -0.55 6.31 -0.73 5.41 C-1 3 -1 3 0 0 Z " fill="#B96080" transform="translate(119,242)"/>
<path d="M0 0 C3.89 4.43 6.8 8.93 7.19 14.94 C7.13 15.62 7.06 16.3 7 17 C4.78 14.78 4.08 13.09 2.94 10.19 C2.6 9.34 2.25 8.48 1.9 7.61 C1.03 5.08 0.46 2.63 0 0 Z " fill="#C66584" transform="translate(542,77)"/>
<path d="M0 0 C2.45 3.68 2.23 6.44 2.12 10.69 C2.12 11.39 2.11 12.09 2.1 12.81 C2.07 14.54 2.04 16.27 2 18 C1.67 18 1.34 18 1 18 C0.63 15.94 0.28 13.88 -0.06 11.81 C-0.36 10.09 -0.36 10.09 -0.66 8.33 C-0.98 5.21 -0.81 3 0 0 Z " fill="#B5648A" transform="translate(126,300)"/>
<path d="M0 0 C0.33 0.99 0.66 1.98 1 3 C-2.96 3 -6.92 3 -11 3 C-11 2.01 -11 1.02 -11 0 C-6.98 -0.84 -3.98 -1.05 0 0 Z " fill="#C6CB94" transform="translate(997,48)"/>
<path d="M0 0 C2.49 3.74 2.21 5.74 2.12 10.19 C2.11 11.46 2.09 12.73 2.07 14.04 C2.04 15.51 2.04 15.51 2 17 C-1.12 10.95 -1.01 6.63 0 0 Z " fill="#C06788" transform="translate(214,236)"/>
<path d="M0 0 C5.53 1.19 8.18 2.6 12 7 C11.67 7.99 11.34 8.98 11 10 C9.29 8.38 7.63 6.71 6 5 C6 4.34 6 3.68 6 3 C5.2 2.88 4.39 2.75 3.56 2.62 C2.72 2.42 1.87 2.21 1 2 C0.67 1.34 0.34 0.68 0 0 Z " fill="#C05F79" transform="translate(492,93)"/>
<path d="M0 0 C0.45 0.41 0.89 0.82 1.36 1.24 C4.74 4.26 7.58 6.66 12 8 C12 8.66 12 9.32 12 10 C7.09 9.57 4.47 7.39 1 4 C0.33 1.83 0.33 1.83 0 0 Z " fill="#DCD78D" transform="translate(976,290)"/>
<path d="M0 0 C1.49 0.99 1.49 0.99 3 2 C3.29 4.82 3.29 4.82 3.19 8.12 C3.16 9.22 3.13 10.32 3.11 11.45 C3.07 12.29 3.04 13.13 3 14 C0.32 11.32 0.61 9.61 0.38 5.88 C0.3 4.78 0.23 3.68 0.15 2.55 C0.1 1.71 0.05 0.87 0 0 Z " fill="#C7627D" transform="translate(246,222)"/>
<path d="M0 0 C0.33 0 0.66 0 1 0 C1.12 0.74 1.25 1.48 1.38 2.25 C1.86 4.97 1.86 4.97 3.12 7.06 C4 9 4 9 3.75 11.19 C3 13 3 13 1 14 C-0.21 9.33 -0.09 4.79 0 0 Z " fill="#D9565F" transform="translate(104,110)"/>
<path d="M0 0 C4.32 1.44 6.35 4.4 9 8 C10.38 10.94 10.38 10.94 11 13 C9.84 11.84 8.67 10.67 7.51 9.5 C6.46 8.46 5.4 7.43 4.33 6.4 C2.85 4.97 1.42 3.49 0 2 C0 1.34 0 0.68 0 0 Z " fill="#935E86" transform="translate(530,63)"/>
<path d="M0 0 C0.33 0 0.66 0 1 0 C2.12 7.75 2.12 7.75 1 10 C0.34 10 -0.32 10 -1 10 C-1.33 10.99 -1.66 11.98 -2 13 C-2.19 8.18 -1.76 4.5 0 0 Z " fill="#C55B73" transform="translate(294,240)"/>
<path d="M0 0 C8.58 0 17.16 0 26 0 C26 0.33 26 0.66 26 1 C17.42 1 8.84 1 0 1 C0 0.67 0 0.34 0 0 Z " fill="#000002" transform="translate(812,93)"/>
<path d="M0 0 C0.33 0 0.66 0 1 0 C1 4.95 1 9.9 1 15 C0.67 15 0.34 15 0 15 C0 10.05 0 5.1 0 0 Z " fill="#404F74" transform="translate(1137,215)"/>
<path d="M0 0 C0.33 0 0.66 0 1 0 C1 4.29 1 8.58 1 13 C0.67 13 0.34 13 0 13 C0 8.71 0 4.42 0 0 Z " fill="#4D4269" transform="translate(762,67)"/>
<path d="M0 0 C0.33 0 0.66 0 1 0 C1 3.63 1 7.26 1 11 C0.67 11 0.34 11 0 11 C0 7.37 0 3.74 0 0 Z " fill="#4D4269" transform="translate(762,82)"/>
<path d="M0 0 C0.33 0 0.66 0 1 0 C1 1.98 1 3.96 1 6 C0.67 6 0.34 6 0 6 C0 4.02 0 2.04 0 0 Z " fill="#000002" transform="translate(1137,150)"/>
<path d="M0 0 C1.98 0 3.96 0 6 0 C6 0.33 6 0.66 6 1 C4.02 1 2.04 1 0 1 C0 0.67 0 0.34 0 0 Z " fill="#5254B7" transform="translate(673,49)"/>
<path d="M0 0 C1 4 1 4 1 4 Z " fill="#1E1E45" transform="translate(1137,158)"/>
<path d="M0 0 C1 4 1 4 1 4 Z " fill="#000002" transform="translate(903,112)"/>
<path d="M0 0 C1 4 1 4 1 4 Z " fill="#413960" transform="translate(1137,94)"/>
<path d="M0 0 C4 1 4 1 4 1 Z " fill="#000002" transform="translate(995,90)"/>
<path d="" fill="#000002" transform="translate(0,0)"/>
<path d="" fill="#4D4269" transform="translate(0,0)"/>
<path d="M0 0 C3 1 3 1 3 1 Z " fill="#4D4269" transform="translate(684,49)"/>
<path d="M0 0 C3 1 3 1 3 1 Z " fill="#5254B7" transform="translate(680,49)"/>
<path d="" fill="#7C7B6E" transform="translate(0,0)"/>
<path d="" fill="#000002" transform="translate(0,0)"/>
<path d="" fill="#FBDF5B" transform="translate(0,0)"/>
<path d="" fill="#4D4269" transform="translate(0,0)"/>
<path d="M0 0 C2 1 2 1 2 1 Z " fill="#DAD898" transform="translate(993,46)"/>
<path d="" fill="#000002" transform="translate(0,0)"/>
<path d="" fill="#000002" transform="translate(0,0)"/>
<path d="" fill="#000002" transform="translate(0,0)"/>
<path d="" fill="#000002" transform="translate(0,0)"/>
<path d="" fill="#000002" transform="translate(0,0)"/>
<path d="" fill="#000002" transform="translate(0,0)"/>
<path d="" fill="#000002" transform="translate(0,0)"/>
<path d="" fill="#1E1E45" transform="translate(0,0)"/>
<path d="" fill="#4D4269" transform="translate(0,0)"/>
<path d="" fill="#000002" transform="translate(0,0)"/>
<path d="" fill="#39799A" transform="translate(0,0)"/>
<path d="" fill="#000002" transform="translate(0,0)"/>
</svg>
