<?xml version="1.0" standalone="no"?>
<!DOCTYPE svg PUBLIC "-//W3C//DTD SVG 20010904//EN"
 "http://www.w3.org/TR/2001/REC-SVG-20010904/DTD/svg10.dtd">
<svg version="1.0" xmlns="http://www.w3.org/2000/svg"
 width="300.000000pt" height="96.000000pt" viewBox="0 0 300.000000 96.000000"
 preserveAspectRatio="xMidYMid meet">
<metadata>
Created by potrace 1.10, written by Peter Selinger 2001-2011
</metadata>
<g transform="translate(0.000000,96.000000) scale(0.100000,-0.100000)"
fill="#000000" stroke="none">
<path d="M1479 831 c-73 -23 -109 -77 -109 -166 0 -72 29 -125 114 -209 87
-86 111 -139 85 -185 -17 -31 -59 -39 -83 -16 -10 10 -16 33 -16 61 l0 44 -51
0 -51 0 4 -65 c7 -108 65 -160 169 -152 101 8 143 58 143 167 0 84 -22 125
-109 210 -37 36 -73 77 -81 92 -19 36 -18 93 2 112 35 36 84 7 84 -50 l0 -34
55 0 c62 0 62 1 44 80 -21 90 -108 138 -200 111z m104 -36 c32 -7 67 -57 67
-97 0 -39 -16 -35 -45 12 -42 67 -96 75 -135 20 -43 -60 -22 -119 80 -225 86
-89 103 -123 102 -198 -1 -67 -17 -99 -64 -123 -44 -23 -124 -12 -154 22 -36
38 -45 124 -14 124 6 0 13 -14 17 -30 8 -42 55 -90 87 -90 15 0 38 11 51 25
55 55 21 166 -75 245 -65 54 -95 113 -95 185 0 81 25 122 80 133 40 8 47 8 98
-3z"/>
<path d="M70 490 l0 -340 50 0 50 0 -4 212 c-5 273 -4 256 -16 238 -5 -8 -10
-100 -10 -205 0 -185 -7 -232 -30 -209 -7 7 -9 109 -8 310 l3 299 31 3 c17 2
35 -3 41 -10 6 -7 27 -76 48 -153 20 -77 39 -147 41 -157 3 -9 12 -19 20 -22
19 -7 20 -13 -38 212 l-43 162 -67 0 -68 0 0 -340z"/>
<path d="M310 676 c0 -163 7 -227 21 -204 5 7 9 79 9 159 0 116 3 149 15 159
23 19 26 -14 23 -320 l-3 -285 -27 -3 c-16 -2 -28 -1 -28 3 0 11 -101 370
-111 398 -6 15 -16 27 -21 27 -12 0 -2 -49 47 -230 24 -85 46 -172 50 -192 l7
-38 59 0 59 0 0 340 0 340 -50 0 -50 0 0 -154z"/>
<path d="M480 490 l0 -340 150 0 150 0 0 50 0 50 -95 0 -95 0 0 98 0 97 75 -3
75 -4 0 51 0 51 -75 0 -75 0 0 95 0 95 95 0 95 0 0 50 0 50 -150 0 -150 0 0
-340z m258 289 c2 -14 -8 -17 -68 -18 -99 -2 -110 -15 -110 -124 0 -77 2 -85
26 -108 14 -13 27 -23 30 -21 2 1 22 2 45 2 33 0 40 -3 37 -17 -2 -13 -15 -17
-51 -19 -76 -4 -87 -20 -87 -126 0 -116 9 -127 106 -130 57 -3 69 -6 72 -21 3
-13 -2 -18 -15 -17 -10 1 -21 2 -25 1 -8 -2 -114 -3 -158 -2 -20 1 -20 8 -20
312 l0 310 107 -3 c90 -2 108 -6 111 -19z"/>
<path d="M815 808 c2 -13 18 -147 35 -298 16 -151 32 -294 35 -317 l6 -43 74
0 73 0 7 63 c3 34 8 78 10 97 8 72 14 184 9 167 -3 -9 -9 -15 -13 -12 -5 2
-11 -26 -15 -63 -10 -106 -23 -200 -31 -211 -3 -6 -24 -11 -45 -11 -38 0 -39
1 -45 43 -16 111 -61 553 -57 565 4 13 31 17 33 5 0 -5 2 -19 4 -33 2 -14 8
-79 15 -145 12 -124 36 -259 51 -285 7 -12 8 -10 9 7 0 23 -35 376 -45 451
l-6 42 -55 0 c-51 0 -54 -1 -49 -22z"/>
<path d="M1026 818 c-4 -11 -17 -152 -32 -343 -2 -33 -7 -80 -10 -105 l-5 -45
20 25 c12 14 19 30 17 35 -3 9 2 57 18 195 3 25 8 79 11 120 7 90 16 110 42
94 19 -12 19 -10 48 -283 16 -151 34 -217 35 -126 0 49 -26 350 -36 413 -5 31
-6 32 -55 32 -31 0 -51 -5 -53 -12z"/>
<path d="M1239 828 c-10 -35 -52 -509 -45 -515 3 -4 6 1 6 10 0 9 4 17 8 17 9
0 26 122 43 310 6 69 15 129 19 134 19 20 26 -7 18 -76 -4 -40 -12 -116 -18
-168 -29 -265 -38 -339 -44 -349 -8 -13 -72 -15 -80 -3 -3 5 -12 64 -21 132
-9 68 -23 135 -30 149 -14 25 -15 25 -10 -19 2 -25 10 -102 16 -172 l12 -128
72 0 73 0 7 73 c4 39 8 83 10 97 6 37 55 482 55 497 0 9 -15 13 -45 13 -25 0
-45 -1 -46 -2z"/>
<path d="M2195 813 c-36 -10 -77 -45 -91 -79 -11 -25 -14 -88 -14 -251 0 -188
2 -223 18 -252 22 -44 57 -70 104 -77 48 -8 111 3 102 18 -5 7 -2 8 5 4 7 -5
21 0 33 10 45 41 48 61 48 301 0 208 -2 231 -20 260 -10 18 -30 39 -43 48 -26
17 -109 27 -142 18z m138 -51 c15 -14 27 -36 27 -49 0 -23 15 -32 22 -13 2 6
3 -91 3 -215 0 -183 -2 -222 -12 -208 -11 15 -13 13 -13 -15 0 -67 -117 -111
-182 -68 -57 38 -59 47 -58 292 1 246 3 258 62 294 41 25 115 16 151 -18z"/>
<path d="M2207 719 c-3 -12 -9 -19 -14 -16 -4 3 -8 -92 -8 -211 0 -193 2 -219
17 -233 10 -9 15 -18 12 -22 -3 -3 0 -8 7 -13 8 -4 10 -3 5 4 -5 8 1 12 14 12
28 0 60 18 60 33 0 7 4 17 10 23 5 5 12 82 15 169 5 159 -1 238 -15 215 -5 -8
-10 -2 -14 17 -4 16 -12 30 -19 30 -7 0 -24 3 -39 6 -21 6 -27 3 -31 -14z m74
-16 c11 -12 14 -62 14 -218 0 -215 -4 -235 -49 -235 -12 0 -27 5 -34 12 -17
17 -17 429 0 446 17 17 53 15 69 -5z"/>
<path d="M1750 761 l0 -50 95 -3 c52 -2 95 0 95 5 0 4 -35 8 -77 9 -73 1 -75
2 -28 8 l50 7 -45 2 c-57 2 -80 15 -62 33 9 9 46 13 119 13 106 0 107 0 113
-25 6 -24 -14 -94 -53 -184 -9 -21 -17 -44 -17 -52 0 -7 -4 -15 -9 -18 -8 -6
-26 -73 -23 -88 1 -4 -5 -5 -13 -2 -11 5 -15 -2 -15 -25 0 -17 -5 -31 -11 -31
-7 0 -9 -10 -6 -26 3 -18 1 -24 -9 -20 -9 3 -14 -2 -14 -14 0 -55 26 -9 109
189 74 179 91 229 91 270 l0 51 -145 0 -145 0 0 -49z"/>
<path d="M2460 485 l0 -325 55 0 55 0 0 325 0 325 -55 0 -55 0 0 -325z m80
285 c7 -12 10 -118 10 -293 -1 -255 -2 -274 -20 -284 -14 -10 -21 -9 -31 3
-10 12 -14 12 -20 2 -5 -7 -9 119 -9 280 0 194 3 291 10 287 6 -3 13 1 16 9 8
22 31 20 44 -4z"/>
<path d="M2640 484 l0 -326 120 4 c118 3 120 3 150 33 43 43 53 112 48 330 -3
159 -6 184 -23 215 -32 55 -73 70 -192 70 l-103 0 0 -326z m240 276 c16 -11
32 -30 36 -42 3 -12 7 -120 7 -240 0 -282 1 -281 -169 -291 -64 -3 -76 -2 -84
14 -11 20 -6 562 6 580 12 20 169 4 204 -21z"/>
<path d="M2780 713 c26 -2 50 -11 58 -20 15 -21 17 -385 2 -414 -8 -14 -23
-19 -58 -21 l-47 -1 42 -4 c46 -4 95 19 87 42 -3 7 -1 16 5 20 15 8 15 331 1
340 -6 4 -8 10 -5 15 7 12 -5 41 -15 35 -5 -3 -11 -1 -15 5 -3 5 -27 9 -53 8
l-47 -1 45 -4z"/>
<path d="M2720 484 c1 -201 2 -226 15 -204 20 38 21 387 0 414 -13 18 -15 -4
-15 -210z"/>
<path d="M1892 616 c-18 -42 -30 -82 -26 -88 4 -6 3 -9 -2 -5 -16 10 -124
-266 -124 -318 l0 -45 150 0 150 0 0 50 0 50 -92 -2 -93 -2 75 -6 75 -6 -64
-2 c-76 -2 -76 -13 1 -14 53 -1 82 -13 72 -29 -3 -5 -41 -9 -85 -9 -44 0 -89
-5 -99 -10 -13 -7 -21 -7 -25 0 -4 6 -10 8 -15 5 -5 -3 -15 4 -24 16 -13 19
-13 25 -1 50 8 15 12 36 8 45 -5 14 -3 16 12 11 15 -6 17 -3 12 22 -5 23 -3
29 7 25 17 -7 27 31 12 46 -8 8 -7 10 7 5 12 -5 17 -2 17 9 0 9 4 24 9 34 27
50 62 137 72 176 19 77 4 72 -29 -8z"/>
</g>
</svg>
